<svg xmlns="http://www.w3.org/2000/svg" height="511pt" version="1.1" viewBox="-173 1 511 511.99996" width="511pt">
<g id="surface1">
<path d="M 17.859375 188.777344 C 2.042969 209.234375 -3.296875 235.316406 3.207031 260.34375 L 64.367188 495.613281 C 66.921875 505.4375 75.417969 512 85.546875 512 C 85.613281 512 85.679688 512 85.746094 512 C 95.960938 511.914062 104.441406 505.183594 106.84375 495.25 L 138.589844 364.023438 C 139.566406 359.992188 137.089844 355.9375 133.058594 354.960938 C 129.023438 353.984375 124.96875 356.460938 123.996094 360.492188 L 111.542969 411.964844 L 82.023438 411.964844 C 81.488281 411.964844 80.964844 412.023438 80.460938 412.128906 C 77.066406 412.847656 74.515625 415.863281 74.515625 419.472656 C 74.515625 423.617188 77.878906 426.980469 82.023438 426.980469 L 107.910156 426.980469 L 96.539062 473.980469 L 92.246094 491.71875 C 91.074219 496.558594 86.878906 496.972656 85.617188 496.984375 C 84.394531 496.984375 80.15625 496.652344 78.902344 491.832031 L 48.066406 373.207031 L 78.234375 373.207031 C 82.378906 373.207031 85.742188 369.84375 85.742188 365.699219 C 85.742188 361.550781 82.378906 358.1875 78.234375 358.1875 L 44.160156 358.1875 L 17.742188 256.5625 C 16.191406 250.597656 15.46875 244.558594 15.535156 238.582031 L 63.066406 238.582031 C 67.214844 238.582031 70.574219 235.21875 70.574219 231.070312 C 70.574219 226.925781 67.214844 223.5625 63.066406 223.5625 L 17.40625 223.5625 C 19.617188 214.40625 23.765625 205.695312 29.742188 197.96875 C 42.070312 182.019531 60.40625 172.570312 80.40625 171.695312 C 81.414062 171.652344 82.421875 171.609375 83.4375 171.609375 C 104.382812 171.609375 123.824219 181.050781 136.777344 197.511719 C 149.730469 213.972656 154.335938 235.089844 149.410156 255.449219 L 144.652344 275.109375 L 89.046875 275.109375 C 84.898438 275.109375 81.539062 278.46875 81.539062 282.617188 C 81.539062 286.761719 84.898438 290.125 89.046875 290.125 L 141.019531 290.125 L 131.179688 330.800781 C 130.203125 334.832031 132.679688 338.890625 136.710938 339.867188 C 140.746094 340.84375 144.800781 338.363281 145.773438 334.332031 L 164.003906 258.980469 C 170.019531 234.117188 164.398438 208.328125 148.578125 188.222656 C 140.136719 177.492188 129.433594 169.207031 117.398438 163.8125 L 150.914062 85.472656 C 160.550781 62.953125 161.527344 37.597656 153.402344 20.875 C 149.015625 11.851562 142.195312 5.875 133.679688 3.59375 C 125.164062 1.3125 116.269531 3.078125 107.960938 8.699219 C 107.222656 9.199219 106.496094 9.734375 105.777344 10.285156 C 99.421875 3.550781 91.730469 0 83.433594 0 C 75.136719 0 67.445312 3.550781 61.09375 10.289062 C 60.371094 9.734375 59.644531 9.199219 58.910156 8.703125 C 50.597656 3.078125 41.707031 1.316406 33.191406 3.59375 C 24.671875 5.875 17.855469 11.851562 13.46875 20.878906 C 5.34375 37.597656 6.316406 62.953125 15.953125 85.472656 L 18.539062 91.515625 C 20.171875 95.328125 24.585938 97.09375 28.394531 95.464844 C 28.394531 95.464844 28.398438 95.464844 28.398438 95.464844 C 32.210938 93.835938 33.976562 89.421875 32.34375 85.609375 L 29.757812 79.566406 C 22.007812 61.449219 20.863281 40.015625 26.972656 27.441406 C 29.433594 22.378906 32.832031 19.238281 37.074219 18.101562 C 41.316406 16.964844 45.832031 17.984375 50.492188 21.140625 C 62.070312 28.972656 71.796875 48.109375 74.140625 67.671875 L 84.804688 156.613281 C 84.347656 156.605469 83.894531 156.59375 83.4375 156.59375 C 76.695312 156.59375 70.085938 157.398438 63.71875 158.941406 L 44.195312 113.304688 C 42.566406 109.492188 38.152344 107.722656 34.339844 109.355469 C 30.527344 110.984375 28.757812 115.398438 30.386719 119.210938 L 49.46875 163.808594 C 37.230469 169.296875 26.371094 177.769531 17.859375 188.777344 Z M 89.054688 65.886719 C 87.011719 48.847656 80.585938 32.734375 71.632812 21.027344 C 75.222656 17.050781 79.1875 15.015625 83.433594 15.015625 C 87.828125 15.015625 91.921875 17.171875 95.609375 21.425781 C 104.765625 31.988281 109.207031 52.988281 106.410156 72.492188 L 97.386719 135.386719 Z M 129.792969 18.101562 C 134.035156 19.238281 137.433594 22.382812 139.894531 27.441406 C 146.003906 40.015625 144.859375 61.449219 137.109375 79.566406 L 112.21875 137.738281 L 121.273438 74.625 C 123.957031 55.90625 121.214844 36.898438 114.226562 22.738281 C 114.933594 22.164062 115.648438 21.628906 116.375 21.140625 C 121.035156 17.988281 125.550781 16.960938 129.792969 18.101562 Z M 129.792969 18.101562 " style=" stroke:none;fill-rule:nonzero;fill:rgb(0%,0%,0%);fill-opacity:1;" />
</g>
</svg>