<?xml version="1.0" encoding="iso-8859-1"?>
<!-- Generator: Adobe Illustrator 19.0.0, SVG Export Plug-In . SVG Version: 6.00 Build 0)  -->
<svg version="1.1" id="Capa_1" xmlns="http://www.w3.org/2000/svg" xmlns:xlink="http://www.w3.org/1999/xlink" x="0px" y="0px"
	 viewBox="0 0 512 512" style="enable-background:new 0 0 512 512;" xml:space="preserve">
<g>
	<g>
		<path d="M458.265,101.103H53.734c-5.522,0-10,4.477-10,10v249.923c0,5.523,4.478,10,10,10h404.532c5.522,0,10-4.477,9.999-10.001
			V111.103C468.265,105.58,463.787,101.103,458.265,101.103z M448.265,351.026H63.734V121.103h384.531V351.026z"/>
	</g>
</g>
<g>
	<g>
		<path d="M502,57.383H10c-5.522,0-10,4.477-10,10v337.364c0,5.523,4.478,10,10,10h185.806v19.869h-61.069c-5.522,0-10,4.477-10,10
			s4.478,10,10,10h242.527c5.522,0,10-4.477,10-10s-4.478-10-10-10h-61.069v-19.869H502c5.522,0,10-4.477,10-10V67.383
			C512,61.861,507.522,57.383,502,57.383z M296.194,434.615h-80.389v-19.869h80.389V434.615z M492,394.747H20V77.383h472V394.747z"
			/>
	</g>
</g>
<g>
	<g>
		<path d="M375.411,155.491c-0.914-3.795-3.953-6.712-7.782-7.469c-2.764-0.546-68.02-12.98-100.68,21.038
			c-4.504,4.691-8.099,9.965-10.949,15.579c-2.85-5.614-6.446-10.888-10.949-15.579c-32.66-34.016-97.915-21.584-100.68-21.038
			c-3.829,0.757-6.868,3.673-7.782,7.469c-0.659,2.737-15.765,67.412,16.897,101.432c18.639,19.413,47.891,23.697,70.088,23.697
			c16.699,0,29.405-2.426,30.592-2.66c0.635-0.126,1.248-0.311,1.834-0.549c0.586,0.239,1.199,0.424,1.834,0.549
			c1.187,0.234,13.89,2.66,30.592,2.66c22.196,0,51.451-4.287,70.088-23.697C391.176,222.903,376.07,158.228,375.411,155.491z
			 M246.003,234.788c-0.067,4.712-0.361,9.173-0.752,13.167l-18.956-17.701l-3.113-30.423c-0.563-5.494-5.462-9.486-10.966-8.93
			c-5.494,0.563-9.492,5.472-8.931,10.966l0.781,7.629l-24.005-22.417c-4.035-3.769-10.365-3.553-14.134,0.483
			c-3.77,4.037-3.553,10.365,0.483,14.134l62.963,58.797c-18.93,0.737-46.123-1.448-61.459-17.422
			c-19.985-20.815-15.74-60.778-13.13-76.409c15.74-1.965,55.854-4.565,75.839,16.25c11.873,12.367,15.194,31.492,15.386,48.258
			C245.993,232.39,245.992,233.598,246.003,234.788z M344.086,243.072c-15.338,15.975-42.532,18.158-61.461,17.422l31.433-29.353
			l22.46,2.076c0.313,0.029,0.624,0.043,0.933,0.043c5.107,0,9.467-3.894,9.946-9.08c0.508-5.5-3.538-10.37-9.037-10.878
			l-4.73-0.437l11.959-11.168c4.036-3.769,4.253-10.097,0.483-14.134c-3.769-4.037-10.098-4.253-14.134-0.483l-24.005,22.417
			l0.781-7.629c0.562-5.494-3.437-10.404-8.931-10.966c-5.504-0.558-10.402,3.437-10.966,8.93l-3.113,30.423l-19.008,17.75
			c-1.91-20.363-0.653-49.12,14.681-65.092c19.988-20.819,60.11-18.217,75.839-16.25C359.827,182.3,364.069,222.258,344.086,243.072
			z"/>
	</g>
</g>
<g>
	<g>
		<path d="M387.519,314.799c-0.12-0.63-0.319-1.26-0.569-1.87c-0.25-0.6-0.561-1.18-0.92-1.72c-0.36-0.55-0.78-1.06-1.24-1.52
			c-0.46-0.46-0.971-0.88-1.521-1.25c-0.54-0.36-1.12-0.67-1.729-0.92c-0.6-0.25-1.23-0.44-1.87-0.57c-1.29-0.26-2.62-0.26-3.9,0
			c-0.64,0.13-1.27,0.32-1.88,0.57c-0.6,0.25-1.18,0.56-1.72,0.92c-0.55,0.37-1.061,0.79-1.521,1.25c-1.86,1.86-2.93,4.44-2.93,7.07
			s1.071,5.21,2.93,7.07c0.46,0.46,0.971,0.88,1.521,1.24c0.54,0.36,1.12,0.67,1.72,0.92c0.61,0.25,1.24,0.44,1.88,0.57
			s1.3,0.2,1.95,0.2c0.65,0,1.31-0.07,1.949-0.2c0.64-0.13,1.269-0.32,1.87-0.57c0.609-0.25,1.189-0.56,1.729-0.92
			c0.55-0.36,1.061-0.78,1.521-1.24c1.86-1.86,2.93-4.44,2.93-7.07C387.719,316.109,387.649,315.449,387.519,314.799z"/>
	</g>
</g>
<g>
	<g>
		<path d="M337.96,306.756H134.28c-5.522,0-10,4.477-10,10s4.478,10,10,10h203.68c5.522,0,10-4.477,10-10
			S343.482,306.756,337.96,306.756z"/>
	</g>
</g>
<g>
</g>
<g>
</g>
<g>
</g>
<g>
</g>
<g>
</g>
<g>
</g>
<g>
</g>
<g>
</g>
<g>
</g>
<g>
</g>
<g>
</g>
<g>
</g>
<g>
</g>
<g>
</g>
<g>
</g>
</svg>
