<svg version="1.1" id="Capa_1" xmlns="http://www.w3.org/2000/svg" xmlns:xlink="http://www.w3.org/1999/xlink" x="0px" y="0px"
	 viewBox="0 0 464.686 464.686" style="enable-background:new 0 0 464.686 464.686;" xml:space="preserve">
<g>
	<path style="fill:#010002;" d="M301.473,176.512H163.214c-4.487,0-8.129,3.633-8.129,8.129s3.642,8.129,8.129,8.129h138.259
		c4.487,0,8.129-3.633,8.129-8.129C309.601,180.145,305.96,176.512,301.473,176.512z"/>
	<path style="fill:#010002;" d="M301.473,245.499H163.214c-4.487,0-8.129,3.633-8.129,8.129c0,4.495,3.642,8.129,8.129,8.129
		h138.259c4.487,0,8.129-3.633,8.129-8.129C309.601,249.141,305.96,245.499,301.473,245.499z"/>
	<path style="fill:#010002;" d="M301.473,314.495H163.214c-4.487,0-8.129,3.633-8.129,8.129c0,4.495,3.642,8.129,8.129,8.129
		h138.259c4.487,0,8.129-3.633,8.129-8.129C309.601,318.128,305.96,314.495,301.473,314.495z"/>
	<path style="fill:#010002;" d="M301.473,383.482H163.214c-4.487,0-8.129,3.633-8.129,8.129c0,4.495,3.642,8.129,8.129,8.129
		h138.259c4.487,0,8.129-3.633,8.129-8.129C309.601,387.115,305.96,383.482,301.473,383.482z"/>
	<path style="fill:#010002;" d="M119.653,58.826c4.487,0,8.129-3.633,8.129-8.129s-3.642-8.129-8.129-8.129H76.531
		c-4.487,0-8.129,3.633-8.129,8.129v405.86c0,4.495,3.642,8.129,8.129,8.129h311.625c4.487,0,8.129-3.633,8.129-8.129V50.698
		c0-4.495-3.642-8.129-8.129-8.129h-43.114c-4.487,0-8.129,3.633-8.129,8.129s3.642,8.129,8.129,8.129h34.985v389.603H84.659V58.826
		H119.653z"/>
	<path style="fill:#010002;" d="M277.948,0h-91.211c-4.487,0-8.129,3.633-8.129,8.129v16.2h-26.45c-4.487,0-8.129,3.633-8.129,8.129
		v71.434c0,4.495,3.642,8.129,8.129,8.129h160.369c4.487,0,8.129-3.633,8.129-8.129V32.466c0-4.495-3.642-8.129-8.129-8.129h-26.45
		V8.129C286.077,3.642,282.435,0,277.948,0z M304.399,40.594v55.177H160.287V40.594h26.45c4.487,0,8.129-3.633,8.129-8.129V16.257
		h74.954v16.2c0,4.495,3.642,8.129,8.129,8.129h26.45V40.594z"/>
	<circle style="fill:#010002;" cx="232.339" cy="48.95" r="15.2"/>
</g>
<g>
</g>
<g>
</g>
<g>
</g>
<g>
</g>
<g>
</g>
<g>
</g>
<g>
</g>
<g>
</g>
<g>
</g>
<g>
</g>
<g>
</g>
<g>
</g>
<g>
</g>
<g>
</g>
<g>
</g>
</svg>
