<svg height="480pt" viewBox="-60 0 480 480.00494" width="480pt" xmlns="http://www.w3.org/2000/svg"><path d="m354.554688 329.910156-46.398438-12.425781c-47.6875-12.707031-97.746094 9.796875-119.898438 53.898437v-68c24.421876-2.609374 45.761719-17.636718 56.449219-39.746093 1.601563.105469 3.144531.359375 4.703125.359375 25.746094-.0625 49.527344-13.761719 62.496094-36 13.804688-23.742188 12.753906-53.296875-2.703125-76 15.453125-22.703125 16.503906-52.257813 2.703125-76-13.839844-23.648438-39.855469-37.449219-67.199219-35.648438-11.980469-24.679687-37.003906-40.347656-64.4375-40.347656-27.4375 0-52.460937 15.667969-64.441406 40.347656-27.34375-1.796875-53.355469 12.003906-67.199219 35.648438-13.804687 23.742187-12.753906 53.300781 2.703125 76-15.457031 22.703125-16.507812 52.257812-2.703125 76 12.964844 22.234375 36.738282 35.9375 62.480469 36.007812 1.597656 0 3.140625-.253906 4.710937-.359375 10.683594 22.109375 32.023438 37.140625 56.4375 39.761719v44c-22.152343-44.117188-72.226562-66.628906-119.925781-53.914062l-46.402343 12.425781c-4.265626 1.144531-6.800782 5.53125-5.652344 9.800781l8.285156 30.910156c14.847656 55.492188 71.886719 88.421875 127.367188 73.535156l36.328124-9.757812v69.597656h16v-45.597656l36.296876 9.726562c55.480468 14.886719 112.519531-18.042968 127.367187-73.535156l8.289063-30.914062c1.128906-4.257813-1.398438-8.628906-5.65625-9.773438zm-196.695313 67.824219-26 6.964844c-46.9375 12.515625-95.148437-15.316407-107.785156-62.222657l-6.207031-23.199218 38.632812-10.351563c46.945312-12.5 95.152344 15.363281 107.757812 62.277344l3.683594 13.730469-80.105468-40.089844-7.152344 14.320312zm140.191406-177.730469c-9.902343 16.976563-27.917969 27.582032-47.566406 28 .078125-.359375.109375-.742187.183594-1.117187.351562-1.648438.617187-3.320313.847656-5.011719.105469-.796875.246094-1.597656.328125-2.34375.265625-2.5.40625-5.011719.414062-7.527344-.015624-2.871094-.210937-5.742187-.574218-8.589844-.105469-.800781-.238282-1.601562-.367188-2.449218-.328125-2.136719-.761718-4.238282-1.28125-6.328125-.191406-.742188-.351562-1.496094-.558594-2.230469-.757812-2.699219-1.671874-5.351562-2.738281-7.945312-.152343-.359376-.335937-.703126-.496093-1.0625-.96875-2.230469-2.050782-4.410157-3.246094-6.53125-.410156-.726563-.800782-1.429688-1.265625-2.148438-1.136719-1.875-2.359375-3.683594-3.65625-5.441406-.40625-.542969-.796875-1.105469-1.191407-1.601563-1.585937-2.050781-3.285156-4.011719-5.085937-5.878906 2.554687.640625 5.140625 1.140625 7.75 1.496094.695313.097656 1.394531.144531 2.089844.222656 2.1875.242187 4.375.386719 6.566406.433594.472656 0 .9375.085937 1.402344.085937.34375 0 .695312-.0625 1.039062-.0625 2.542969-.035156 5.085938-.199218 7.613281-.496094.25 0 .496094 0 .753907-.0625 2.769531-.375 5.515625-.910156 8.222656-1.601562.753906-.191406 1.496094-.421875 2.242187-.640625 2.046876-.589844 4.0625-1.269531 6.0625-2.039063.800782-.296874 1.527344-.582031 2.28125-.902343 2.640626-1.109375 5.210938-2.375 7.703126-3.785157 2.183593-1.265624 4.296874-2.640624 6.335937-4.128906.625-.449218 1.207031-.945312 1.824219-1.414062 1.375-1.066406 2.71875-2.160156 4-3.3125.273437-.25.585937-.457032.855468-.714844 9.605469 17.167969 9.421876 38.136719-.488281 55.128906zm-62.398437-162.246094.296875-.089843c1.679687-.421875 3.390625-.800781 5.117187-1.039063 22.804688-3.402344 45.375 7.445313 56.960938 27.375 11.648437 19.953125 9.753906 45.027344-4.757813 63-4.324219 5.460938-9.664062 10.035156-15.722656 13.472656-2.0625 1.183594-4.199219 2.234376-6.398437 3.144532-.664063.273437-1.34375.472656-2.015626.71875-1.539062.578125-3.082031 1.128906-4.648437 1.601562-.800781.230469-1.65625.382813-2.480469.574219-1.441406.328125-2.886718.632813-4.351562.839844-.898438.136719-1.800782.21875-2.703125.304687-1.410157.136719-2.816407.234375-4.226563.257813-.933594 0-1.863281 0-2.800781 0-1.390625 0-2.773437-.144531-4.167969-.289063-.925781-.097656-1.855468-.199218-2.773437-.34375-1.402344-.222656-2.785157-.519531-4.167969-.847656-.890625-.207031-1.777344-.390625-2.648438-.648438-1.449218-.417968-2.871093-.9375-4.289062-1.480468-.800781-.289063-1.597656-.535156-2.320312-.863282-.199219-.089843-.382813-.207031-.582032-.296874.09375-.398438.128906-.800782.207032-1.207032.078124-.410156.183593-1.039062.28125-1.558594 1.671874-8.957031.710937-18.207031-2.769532-26.625-1.632812-3.945312-3.785156-7.65625-6.398437-11.03125-1.414063-1.800781-2.949219-3.496093-4.601563-5.082031l-.976562-.953125c-1.640625-1.511718-3.378906-2.917968-5.207032-4.199218l-.566406-.359376c-1.929687-1.308593-3.957031-2.472656-6.058594-3.480468-2.15625-1.023438-4.386718-1.871094-6.679687-2.535156l-.222656-.089844c0-.199219 0-.398438 0-.589844.101562-.863281.289062-1.703125.429687-2.550781.242188-1.464844.496094-2.921875.847656-4.355469.234376-.917969.523438-1.804688.800782-2.710938.402344-1.328124.800781-2.648437 1.328125-3.933593.34375-.90625.738281-1.792969 1.128906-2.671875.558594-1.242188 1.152344-2.464844 1.792969-3.664063.464844-.851562.933594-1.699219 1.4375-2.523437.714844-1.175782 1.472656-2.308594 2.273437-3.421875.550781-.800781 1.097657-1.558594 1.6875-2.304688.878907-1.113281 1.832031-2.167969 2.792969-3.199219.617188-.664062 1.207031-1.351562 1.855469-1.984374 1.113281-1.097657 2.3125-2.113282 3.519531-3.121094.601562-.496094 1.152344-1.023438 1.769531-1.496094 1.878907-1.441406 3.847657-2.761719 5.894531-3.949219 1.519532-.875 3.070313-1.675781 4.648438-2.402343 1.578125-.726563 3.179688-1.375 4.800781-1.953126 1.542969-.566406 3.113281-1.03125 4.6875-1.4375zm-23.394532 94.246094c.054688 7.070313-2.289062 13.945313-6.652343 19.503906-5.25 6.8125-13.023438 11.222657-21.5625 12.234376-2.664063.507812-5.402344.480468-8.054688-.082032-6.164062-.949218-11.953125-3.5625-16.746093-7.550781-9.507813-8.316406-13.234376-21.449219-9.507813-33.519531 3.722656-12.070313 14.199219-20.824219 26.742187-22.335938 1.25-.199218 2.515626-.285156 3.78125-.25h1.355469c.636719.050782 1.269531.082032 1.886719.175782.34375 0 .65625.058593 1.03125.128906 8.367188 1.074218 15.957031 5.453125 21.074219 12.160156 4.375 5.566406 6.722656 12.457031 6.652343 19.535156zm-32-136c19.707032-.09375 37.988282 10.257813 48.050782 27.199219-.378906.121094-.730469.289063-1.105469.410156-1.597656.527344-3.199219 1.128907-4.75 1.769531-.753906.300782-1.511719.574219-2.25.902344-2.277344 1.003906-4.5 2.125-6.664063 3.351563-2.496093 1.453125-4.898437 3.054687-7.199218 4.800781-.65625.496094-1.289063 1.015625-1.929688 1.535156-1.695312 1.359375-3.320312 2.800782-4.871094 4.304688-.542968.519531-1.101562 1.03125-1.597656 1.597656-1.957031 2.011719-3.796875 4.128906-5.515625 6.347656-.261719.34375-.476562.710938-.734375 1.054688-1.421875 1.925781-2.757812 3.917968-4 5.984375-.433594.726562-.800781 1.457031-1.246094 2.199219-1.058593 1.921874-2.019531 3.894531-2.890624 5.902343-.269532.609375-.566407 1.203125-.800782 1.816407-.960937 2.363281-1.792968 4.773437-2.496094 7.226562-.707031-2.460938-1.546874-4.878906-2.511718-7.25-.253906-.617188-.550782-1.207031-.796875-1.824219-.871094-2.007812-1.832031-3.972656-2.890625-5.886719-.40625-.746093-.800782-1.488281-1.253906-2.222656-1.21875-2.039062-2.53125-4.019531-3.945313-5.9375-.265625-.359375-.488281-.746094-.757813-1.097656-1.714843-2.210938-3.550781-4.324219-5.507812-6.328125-.535156-.550781-1.101562-1.0625-1.652344-1.597656-1.554687-1.492188-3.167968-2.921875-4.851562-4.289063-.644532-.519531-1.285156-1.039062-1.949219-1.542968-2.304687-1.742188-4.707031-3.347657-7.199219-4.800782-2.167968-1.234375-4.398437-2.355468-6.683594-3.359375-.710937-.3125-1.445312-.578125-2.167968-.871093-1.597656-.648438-3.199219-1.257813-4.796875-1.785157-.371094-.121093-.722657-.289062-1.089844-.410156 10.0625-16.945313 28.347656-27.296875 48.054687-27.199219zm-117.789062 68c10.085938-17.289062 28.574219-27.941406 48.589844-28 2.800781 0 5.59375.214844 8.359375.640625 6.886719 1.070313 13.519531 3.394531 19.5625 6.863281 2.050781 1.191407 4.023437 2.511719 5.902343 3.960938.609376.464844 1.160157.992188 1.753907 1.480469 1.214843 1.007812 2.398437 2.03125 3.542969 3.136719.648437.632812 1.238281 1.320312 1.847656 1.984374.96875 1.046876 1.921875 2.101563 2.800781 3.199219.589844.75 1.144531 1.527344 1.695313 2.304688.800781 1.117187 1.601562 2.253906 2.273437 3.421875.496094.800781.976563 1.671875 1.429687 2.527344.648438 1.203124 1.242188 2.402343 1.800782 3.664062.390625.882812.800781 1.769531 1.128906 2.664062.503906 1.296876.925781 2.617188 1.328125 3.945313.277344.902344.566406 1.792969.800781 2.710937.351563 1.433594.605469 2.890626.847656 4.351563.144532.847656.328126 1.691406.429688 2.554687v.589844c-.191406.058594-.359375.152344-.550781.210938-2.070313.625-4.09375 1.394531-6.054688 2.300781-.320312.144531-.625.320313-.9375.472656-1.78125.894531-3.503906 1.902344-5.160156 3.015625-.296875.199219-.609375.378906-.902344.585938-1.792969 1.253906-3.496093 2.625-5.097656 4.109375-.351563.320312-.679687.648437-1.015625.976562-1.648438 1.582031-3.183594 3.277344-4.59375 5.074219-8.328125 10.640625-11.675781 24.347656-9.191406 37.632812.089844.511719.160156 1.023438.265625 1.535157.101562.511719.121093.800781.214843 1.214843-.199218.089844-.390624.207032-.597656.296876-.738281.320312-1.503906.558593-2.25.847656-1.441406.542968-2.878906 1.070312-4.351562 1.496094-.871094.246093-1.753906.441406-2.632813.648437-1.375.320313-2.757812.625-4.160156.839844-.933594.144531-1.886719.246093-2.832031.351562-1.351563.144531-2.710938.238281-4.070313.28125-.976562 0-1.945312 0-2.921875 0-1.351562 0-2.703125-.121093-4.046875-.25-.96875-.085937-1.9375-.175781-2.894531-.320312-1.371094-.199219-2.730469-.488281-4.089844-.800781-.910156-.207032-1.832031-.382813-2.734375-.628907-1.472656-.410156-2.914062-.929687-4.351562-1.457031-.761719-.289062-1.539063-.511719-2.289063-.800781-2.199218-.90625-4.335937-1.957031-6.402344-3.136719-6.0625-3.441406-11.402343-8.023438-15.726562-13.496094-14.5-17.984375-16.378906-43.054687-4.71875-63zm60 105.273438c-1.296875 1.757812-2.519531 3.566406-3.65625 5.441406-.433594.71875-.855469 1.421875-1.265625 2.148438-1.191406 2.121093-2.277344 4.300781-3.246094 6.53125-.160156.359374-.34375.703124-.496093 1.0625-1.066407 2.59375-1.980469 5.246093-2.738282 7.945312-.207031.734375-.367187 1.488281-.558594 2.230469-.519531 2.089843-.953124 4.191406-1.28125 6.328125-.125.800781-.261718 1.601562-.367187 2.449218-.371094 2.847657-.574219 5.71875-.601563 8.589844.011719 2.519532.148438 5.035156.417969 7.535156.078125.800782.214844 1.546876.320313 2.320313.230468 1.699219.503906 3.394531.855468 5.058594.078126.359375.105469.734375.183594 1.09375-19.648437-.417969-37.664062-11.023438-47.566406-28-9.941406-17.007813-10.132812-38.011719-.503906-55.199219.269531.257812.582031.464844.863281.710938 1.28125 1.152343 2.609375 2.234374 4 3.289062.625.480469 1.214844.984375 1.855469 1.449219 4.347656 3.175781 9.054687 5.828125 14.023437 7.894531.753907.320312 1.519531.609375 2.28125.90625 2.007813.796875 4 1.453125 6.085938 2.046875.746093.207031 1.472656.449219 2.21875.632813 2.71875.695312 5.476562 1.230468 8.261719 1.597656.207031 0 .417968 0 .617187.058594 2.582031.304687 5.175781.472656 7.777344.503906.335937 0 .664062.0625 1 .0625.335937 0 .886719-.078125 1.335937-.089844 2.238282 0 4.46875-.191406 6.695313-.4375.664062-.074219 1.328125-.121094 1.992187-.214844 2.617188-.355468 5.210938-.855468 7.773438-1.496094-1.800782 1.863282-3.5 3.828126-5.085938 5.878907-.441406.566406-.808594 1.128906-1.214844 1.671875zm57.789062 98.726562c-23.113281.105469-43.886718-14.105468-52.167968-35.6875-2.5625-6.464844-3.863282-13.359375-3.832032-20.3125.011719-2.363281.167969-4.726562.472657-7.070312.105469-.800782.289062-1.527344.417969-2.296875.261718-1.542969.542968-3.078125.933593-4.582031.226563-.890626.53125-1.753907.800781-2.625.417969-1.34375.855469-2.6875 1.375-4 .355469-.890626.761719-1.761719 1.160157-2.640626.570312-1.230468 1.160156-2.457031 1.816406-3.648437.472656-.855469.96875-1.695313 1.480469-2.519531.710937-1.152344 1.472656-2.28125 2.265625-3.375.566406-.800782 1.136719-1.601563 1.742187-2.320313.871094-1.082031 1.808594-2.121093 2.761719-3.136719.640625-.679687 1.253906-1.375 1.925781-2.023437 1.082032-1.039063 2.234375-2.007813 3.394532-2.96875.648437-.527344 1.261718-1.097656 1.941406-1.601563.160156-.125.355468-.222656.523437-.351562.140625.144531.316407.25.460938.386719 1.601562 1.496093 3.300781 2.882812 5.089843 4.152343.261719.183594.535157.34375.800782.519532 1.65625 1.113281 3.386718 2.121094 5.175781 3.015625.328125.167969.648437.351562.984375.511719 1.929688.902343 3.921875 1.675781 5.957031 2.3125.441407.132812.882813.246093 1.320313.375 2.097656.601562 4.238281 1.054687 6.402344 1.351562 2.242187.394531 4.519531.574219 6.796874.535156 2.109376.042969 4.214844-.109375 6.289063-.464844 2.246094-.300781 4.464844-.761718 6.640625-1.382812.457031-.128906.902344-.238281 1.351562-.382812 2.078126-.632813 4.109376-1.40625 6.082032-2.320313.351562-.167969.679687-.359375 1.03125-.527344 1.785156-.890625 3.515625-1.890625 5.175781-3 .289063-.183593.574219-.351562.855469-.542969 1.785156-1.265624 3.484375-2.644531 5.078125-4.136718.160156-.144532.339843-.25.488281-.402344.167969.128906.363281.226562.523438.351562.679687.503907 1.292968 1.074219 1.941406 1.601563 1.160156.960937 2.3125 1.929687 3.394531 2.96875.671875.648437 1.285156 1.34375 1.925781 2.023437.953125 1.015626 1.886719 2.054688 2.761719 3.136719.605469.75 1.175781 1.535157 1.742187 2.320313.800782 1.09375 1.550782 2.222656 2.265626 3.375.511718.800781 1.007812 1.664062 1.480468 2.519531.65625 1.191406 1.246094 2.398437 1.816406 3.648437.398438.878907.796876 1.75 1.15625 2.640626.523438 1.3125.960938 2.65625 1.378907 4 .269531.871093.574219 1.734374.800781 2.625.390625 1.503906.671875 3.039062.933594 4.582031.128906.800781.3125 1.519531.417968 2.296875.304688 2.34375.460938 4.707031.46875 7.070312 0 1.914063-.109374 3.792969-.292968 5.65625-.488282 5.050782-1.683594 10.003906-3.554688 14.722656-8.296875 21.550782-29.054687 35.730469-52.152344 35.621094zm156.21875 78.472656c-12.640624 46.902344-60.847656 74.730469-107.785156 62.222657l-26-6.964844 77.144532-38.53125-7.152344-14.316406-80.097656 40.007812 3.671874-13.691406c12.625-46.910156 60.847657-74.75 107.785157-62.222656l38.617187 10.3125zm0 0"/></svg>