<?xml version="1.0" encoding="iso-8859-1"?>
<!-- Generator: Adobe Illustrator 19.0.0, SVG Export Plug-In . SVG Version: 6.00 Build 0)  -->
<svg version="1.1" id="Capa_1" xmlns="http://www.w3.org/2000/svg" xmlns:xlink="http://www.w3.org/1999/xlink" x="0px" y="0px"
	 viewBox="0 0 512 512" style="enable-background:new 0 0 512 512;" xml:space="preserve">
<g>
	<g>
		<path d="M290.085,25.511C270.28,5.707,239.9,0.631,214.84,12.495c-7.318-8.799-18.724-13.527-30.255-12.305
			c-0.258,0.007-0.519,0.026-0.78,0.06c-24.462,3.165-33.008,4.269-55.932,7.229L74.522,14.37
			c-9.117,1.07-17.655,4.142-25.371,9.126c-13.388,8.636-22.61,21.968-25.97,37.54c-3.359,15.572-0.453,31.52,8.184,44.909
			c11.338,17.569,30.441,27.343,50.111,27.343c8.954,0,18.028-2.026,26.535-6.266c3.708-1.848,5.215-6.351,3.368-10.058
			c-1.846-3.707-6.349-5.215-10.058-3.368c-20.348,10.14-45.003,3.353-57.353-15.783c-6.464-10.021-8.639-21.958-6.125-33.614
			c2.514-11.655,9.417-21.634,19.442-28.101c5.778-3.731,12.165-6.03,19.072-6.841l53.436-6.901
			c22.712-2.934,31.314-4.044,55.259-7.142c0.226-0.009,0.454-0.027,0.681-0.057c5.992-0.772,11.97,1.306,16.188,5.41
			c-1.93,1.542-3.78,3.189-5.536,4.944L141.883,80.02c-4.371,4.371-8.104,9.309-11.094,14.679c0,0,0,0.001-0.001,0.002
			c-0.001,0.002-0.003,0.005-0.004,0.007c-13.049,23.502-10.347,52.662,6.107,73.395l-18.605,18.605
			c-2.929,2.93-2.929,7.678,0,10.607c1.464,1.464,3.384,2.196,5.303,2.196s3.839-0.732,5.303-2.196l18.601-18.601
			c11.683,9.328,26.067,14.406,41.239,14.406c11.249-0.001,22.369-2.872,32.17-8.309c0.671-0.374,1.336-0.759,1.993-1.156
			c0.923-0.557,1.827-1.145,2.721-1.746c3.567-2.398,6.907-5.135,9.963-8.191l54.507-54.506c0-0.001,0-0.001,0-0.001
			c3.825-3.826,7.162-8.087,9.94-12.69c0.398-0.659,0.784-1.325,1.159-1.998C315.459,78.813,310.895,46.323,290.085,25.511z
			 M188.732,178.119c-13.692,0-26.563-5.33-36.242-15.01c-13.633-13.632-18.252-33.742-12.648-51.654l64.29,64.29
			C199.17,177.3,193.972,178.119,188.732,178.119z M224.974,163.111c-0.759,0.759-1.548,1.485-2.35,2.193
			c-0.158,0.139-0.314,0.28-0.474,0.418c-0.782,0.674-1.583,1.325-2.402,1.95c-0.156,0.119-0.315,0.234-0.472,0.351
			c-0.317,0.237-0.648,0.453-0.97,0.682l-71.41-71.409c0.232-0.327,0.452-0.662,0.691-0.984c0.111-0.15,0.22-0.301,0.333-0.449
			c0.63-0.826,1.286-1.633,1.966-2.422c0.131-0.152,0.265-0.301,0.398-0.451c0.713-0.807,1.443-1.6,2.207-2.364l7.375-7.376
			l56.817,56.817c2.929,2.928,7.678,2.928,10.606,0c2.929-2.93,2.929-7.678,0-10.607l-56.817-56.816l18.543-18.543l72.484,72.485
			L224.974,163.111z M292.129,87.774l-50.831-50.83c-2.929-2.928-7.678-2.928-10.607,0c-2.929,2.93-2.929,7.678,0,10.607
			l54.384,54.383c-0.232,0.327-0.452,0.662-0.691,0.983c-0.112,0.15-0.221,0.301-0.334,0.45c-0.629,0.824-1.284,1.63-1.962,2.417
			c-0.133,0.155-0.27,0.307-0.406,0.461c-0.711,0.805-1.44,1.597-2.202,2.359l-7.375,7.375L199.62,43.495l3.111-3.111l4.264-4.264
			c3.389-3.389,7.216-6.28,11.363-8.592c7.743-4.299,16.276-6.388,24.766-6.388c13.318,0,26.523,5.146,36.356,14.979
			C293.114,49.753,297.733,69.863,292.129,87.774z"/>
	</g>
</g>
<g>
	<g>
		<path d="M455.542,421.772l-20.014-5.363c-28.228-7.568-57.119,3.602-73.475,25.832V410.7c33.56-1.817,64.85-15.809,88.708-39.817
			c25.421-25.582,39.421-59.533,39.421-95.602c0-4.142-3.357-7.5-7.5-7.5h-30.58c-4.142,0-7.5,3.358-7.5,7.5
			c0,4.143,3.358,7.5,7.5,7.5h22.853c-1.785,29.264-13.994,56.557-34.833,77.527c-13.752,13.838-30.281,23.927-48.334,29.761
			c6.401-7.863,12.257-17.849,17.386-29.813c13.141-30.645,20.377-71.226,20.377-114.267c0-4.143-3.358-7.5-7.5-7.5H287.055
			c-4.142,0-7.5,3.357-7.5,7.5c0,7.35,0.23,14.614,0.647,21.79h-53.78c-4.142,0-7.5,3.358-7.5,7.5
			c0,72.27,56.82,131.515,128.133,135.42v13.025h-17.072c-4.143,0-7.5,3.357-7.5,7.5c0,4.143,3.357,7.5,7.5,7.5h17.072v42.133
			c0,0.008,0,0.017,0,0.025V504.5c0,4.143,3.357,7.5,7.5,7.5s7.5-3.357,7.5-7.5v-13.756l10.572,2.833
			c5.961,1.598,11.947,2.359,17.844,2.359c30.464,0,58.419-20.361,66.67-51.153l3.705-13.826
			C461.917,426.956,459.543,422.844,455.542,421.772z M354.553,395.906c-17.92,0-36.179-23.092-47.652-60.264
			c-1.222-3.959-5.427-6.175-9.378-4.954c-3.958,1.221-6.176,5.42-4.954,9.378c6.506,21.08,14.919,37.949,24.644,49.93
			c-46.024-15.013-79.969-57.007-83.063-107.216h47.236c0.957,9.525,2.27,18.855,3.979,27.914c0.768,4.069,4.689,6.75,8.76,5.98
			c4.07-0.768,6.748-4.689,5.981-8.76c-2.026-10.744-3.501-21.883-4.42-33.317c-0.004-0.046-0.007-0.092-0.012-0.139
			c-0.551-6.889-0.899-13.886-1.043-20.969h119.843c-0.777,38.223-7.485,73.798-19.086,100.856
			C384.063,380.758,369.178,395.906,354.553,395.906z M442.651,440.9c-7.707,28.765-37.383,45.895-66.142,38.189l-1.472-0.395
			l41.802-21.927c3.669-1.924,5.082-6.457,3.158-10.125c-1.924-3.669-6.46-5.08-10.125-3.158l-43.551,22.844
			c8.811-27.089,37.487-42.888,65.324-35.432l12.77,3.422L442.651,440.9z"/>
	</g>
</g>
<g>
</g>
<g>
</g>
<g>
</g>
<g>
</g>
<g>
</g>
<g>
</g>
<g>
</g>
<g>
</g>
<g>
</g>
<g>
</g>
<g>
</g>
<g>
</g>
<g>
</g>
<g>
</g>
<g>
</g>
</svg>
