<svg version="1.1" id="Capa_1" xmlns="http://www.w3.org/2000/svg" xmlns:xlink="http://www.w3.org/1999/xlink" x="0px" y="0px"
	 viewBox="0 0 511.999 511.999" style="enable-background:new 0 0 511.999 511.999;" xml:space="preserve">
<g>
	<g>
		<path d="M392.147,267.531c-3.907-3.905-10.237-3.905-14.143,0l-0.028,0.028c-3.905,3.905-3.89,10.223,0.015,14.128
			c1.949,1.949,4.505,2.922,7.063,2.922c2.567,0,5.137-0.98,7.093-2.935C396.052,277.768,396.052,271.436,392.147,267.531z"/>
	</g>
</g>
<g>
	<g>
		<path d="M365.838,241.722L263.004,140.85c-3.89-3.815-10.116-3.815-14.005,0L119.924,267.463
			c-3.943,3.867-4.004,10.199-0.136,14.141c1.958,1.997,4.547,2.998,7.139,2.998c2.527,0,5.056-0.952,7.002-2.862l122.072-119.743
			l95.831,94.002c3.946,3.868,10.275,3.805,14.142-0.136C369.841,251.921,369.78,245.589,365.838,241.722z"/>
	</g>
</g>
<g>
	<g>
		<path d="M508.965,241.748l-59.679-57.913V67.727c0-5.523-4.478-10-10-10h-62.935c-5.522,0-10,4.477-10,10v35.626L262.965,3.027
			c-3.88-3.765-10.049-3.764-13.928,0l-246,238.721c-1.967,1.909-3.065,4.542-3.036,7.283c0.029,2.741,1.183,5.35,3.19,7.216
			l43.89,40.81c3.914,3.64,9.997,3.558,13.812-0.185l15.698-15.399v220.323c0,5.523,4.477,10,10,10h338.818c5.522,0,10-4.477,10-10
			V281.474l15.698,15.399c1.942,1.905,4.472,2.861,7.004,2.861c2.442,0,4.887-0.89,6.809-2.677l43.89-40.81
			c2.008-1.867,3.16-4.476,3.189-7.217C512.029,246.29,510.933,243.656,508.965,241.748z M386.351,77.727h42.936v86.699
			l-42.936-41.665V77.727z M415.41,491.797H96.592V261.855l159.409-156.368L415.41,261.855V491.797z M458.296,275.907
			L263.004,84.341c-3.89-3.815-10.116-3.815-14.005,0L53.707,275.907L24.52,248.769L256.001,24.137l231.481,224.632L458.296,275.907
			z"/>
	</g>
</g>
<g>
	<g>
		<path d="M384.401,311.881c-0.914-3.795-3.952-6.712-7.782-7.47c-3.46-0.684-85.172-16.268-125.755,26.027
			c-2.132,2.222-4.099,4.552-5.914,6.971c-38.867-33.755-108.942-17.387-111.969-16.658c-3.795,0.914-6.712,3.953-7.469,7.783
			c-0.617,3.122-14.671,76.873,23.604,113.621c19.251,18.483,47.096,23.537,71.792,23.536c6.242,0,12.287-0.324,17.937-0.834
			c4.115,0.748,18.855,3.165,37.524,3.165c27.726,0,64.113-5.334,87.193-29.389C404.142,396.339,385.226,315.309,384.401,311.881z
			 M227.782,445.532c-20.162,0.772-47.984-1.646-64.813-17.804c-24.691-23.706-21.106-71.442-18.834-88.812
			c17.252-3.007,64.694-8.581,89.458,15.195c0.389,0.374,0.774,0.757,1.154,1.148C221.049,387.304,224.705,426.358,227.782,445.532z
			 M349.131,424.786c-22.067,23-62.364,24.356-86.844,22.69l45.646-42.654l29.835,2.759c0.313,0.029,0.624,0.043,0.933,0.043
			c5.107,0,9.466-3.894,9.945-9.08c0.509-5.5-3.537-10.37-9.036-10.878l-12.119-1.121l19.711-18.419
			c4.035-3.771,4.25-10.099,0.479-14.134c-3.772-4.035-10.099-4.248-14.134-0.479l-35.918,33.564l1.739-17.003
			c0.562-5.494-3.437-10.403-8.931-10.965c-5.51-0.557-10.404,3.437-10.966,8.931l-4.06,39.699c-0.004,0.036-0.006,0.072-0.01,0.108
			l-28.884,26.991c-2.408-19.688-3.667-51.911,8.615-76.054c0.203-0.337,0.383-0.684,0.541-1.038
			c2.596-4.897,5.768-9.444,9.623-13.461c27.205-28.354,82.115-23.814,100.941-21.271
			C369.551,341.731,376.339,396.43,349.131,424.786z"/>
	</g>
</g>
<g>
</g>
<g>
</g>
<g>
</g>
<g>
</g>
<g>
</g>
<g>
</g>
<g>
</g>
<g>
</g>
<g>
</g>
<g>
</g>
<g>
</g>
<g>
</g>
<g>
</g>
<g>
</g>
<g>
</g>
</svg>
