<svg version="1.1" xmlns="http://www.w3.org/2000/svg" x="0px" y="0px"
	 viewBox="0 0 511.999 511.999" style="enable-background:new 0 0 511.999 511.999;">
		<path d="M392.026,267.412c-3.971-3.839-10.303-3.732-14.14,0.239l-0.028,0.029c-3.839,3.971-3.718,10.287,0.253,14.125
			c1.938,1.873,4.44,2.804,6.942,2.804c2.624,0,5.247-1.024,7.212-3.057C396.104,277.581,395.997,271.25,392.026,267.412z"/>
		<path d="M365.838,241.722L263.004,140.85c-3.889-3.814-10.116-3.814-14.005,0L119.924,267.462
			c-3.943,3.868-4.004,10.199-0.136,14.142c1.958,1.996,4.547,2.997,7.139,2.997c2.527,0,5.056-0.952,7.002-2.861l122.072-119.743
			L351.832,256c3.946,3.867,10.275,3.805,14.142-0.136C369.841,251.92,369.78,245.589,365.838,241.722z"/>
		<path d="M508.965,241.748l-59.679-57.913V67.727c0-5.522-4.478-10-10-10h-62.935c-5.522,0-10,4.478-10,10v35.626L262.965,3.026
			c-3.88-3.764-10.049-3.764-13.928,0l-246,238.722c-1.967,1.909-3.065,4.542-3.036,7.283c0.029,2.741,1.183,5.351,3.19,7.217
			l43.89,40.81c3.914,3.64,9.997,3.56,13.812-0.185l15.698-15.399v220.323c0,5.522,4.477,10,10,10h338.818c5.522,0,10-4.478,10-10
			V281.474l15.698,15.399c1.942,1.905,4.472,2.861,7.004,2.861c2.442,0,4.887-0.89,6.809-2.677l43.89-40.81
			c2.008-1.866,3.16-4.476,3.189-7.217C512.029,246.29,510.933,243.657,508.965,241.748z M386.351,77.727h42.936v86.699
			l-42.936-41.665V77.727z M415.41,491.796H96.592V261.855l159.409-156.368L415.41,261.855V491.796z M458.296,275.907L263.004,84.34
			c-0.837-0.821-1.783-1.465-2.791-1.933c-1.332-0.618-2.772-0.928-4.212-0.928c-1.802,0-3.604,0.485-5.195,1.453
			c-0.642,0.391-1.249,0.86-1.808,1.408L53.707,275.907L24.52,248.769L256.001,24.137l231.481,224.632L458.296,275.907z"/>
		<path d="M323.247,356.765c-1.12-23.382-18.478-41.697-39.518-41.697c-11.637,0-21.404,5.247-27.665,9.774
			c-6.204-4.539-15.931-9.774-27.791-9.774c-21.039,0-38.397,18.315-39.518,41.698c-0.661,13.841,4.145,23.722,7.818,29.95
			c8.83,14.974,46.557,39.966,54.03,44.824c1.657,1.077,3.554,1.615,5.45,1.615c1.896,0,3.792-0.538,5.448-1.614
			c7.448-4.838,45.05-29.738,53.933-44.833C319.105,380.471,323.909,370.581,323.247,356.765z M298.197,376.564
			c-4.292,7.293-25.614,23.43-42.145,34.593c-16.591-11.201-37.985-27.365-42.252-34.601c-3.87-6.562-5.386-12.195-5.068-18.835
			c0.599-12.491,9.365-22.654,19.541-22.654c11.383,0,20.208,9.528,20.253,9.577c1.864,2.098,4.506,3.334,7.312,3.375
			c2.823,0.005,5.481-1.081,7.406-3.123c0.094-0.098,9.585-9.829,20.484-9.829c10.177,0,18.942,10.162,19.541,22.654
			C303.587,364.348,302.069,369.984,298.197,376.564z"/>
</svg>
