<svg version="1.1" xmlns="http://www.w3.org/2000/svg" x="0px" y="0px"
	 viewBox="0 0 512 512" style="enable-background:new 0 0 512 512;">
		<path d="M435.23,426.816h-22.558V156.673C412.673,70.283,342.39,0,256,0S99.327,70.283,99.327,156.673v270.144H76.77
			c-5.523,0-10,4.478-10,10V502c0,5.522,4.477,10,10,10h358.46c5.522,0,10-4.478,10-10v-65.184
			C445.23,431.294,440.753,426.816,435.23,426.816z M119.327,156.673C119.327,81.312,180.638,20,256,20
			c75.361,0,136.673,61.312,136.673,136.673v207.351H248.935v-64.325c6.393,0.868,16.31,1.875,27.874,1.875
			c25.542,0,59.113-4.922,80.438-27.144c37.451-39.03,20.04-113.607,19.281-116.763c-0.561-2.331-1.924-4.33-3.779-5.702
			C370.253,89.714,318.841,39.838,256,39.838c-64.428,0-116.844,52.427-116.844,116.868c0,5.522,4.477,10,10,10s10-4.478,10-10
			c0-53.413,43.444-96.868,96.844-96.868c50.466,0,92.04,38.812,96.456,88.16c-24.908-2.284-72.265-2.189-99.563,26.259
			c-9.443,9.841-15.398,21.943-19.012,34.589c-1.074-1.363-2.22-2.685-3.442-3.958c-28.755-29.967-85.901-19.074-88.32-18.595
			c-3.83,0.757-6.869,3.674-7.782,7.47c-0.577,2.397-13.801,59.059,14.953,89.023c16.448,17.141,42.183,20.912,61.653,20.912
			c7.071,0,13.317-0.498,17.99-1.033v61.358H119.327V156.673z M392.673,384.023v42.793h-44.154v-42.793H392.673z M191.997,234.347
			l0.309,3.023l-18.129-16.939c-4.036-3.771-10.364-3.557-14.134,0.479c-3.771,4.035-3.556,10.363,0.48,14.134l52.074,48.655
			c-15.845,0.256-36.793-2.17-48.875-14.76c-16.476-17.169-13.393-50.036-11.164-63.982c14.033-1.657,46.981-3.384,63.451,13.779
			c9.688,10.097,12.613,25.622,12.926,39.536v5.273c-0.058,2.68-0.2,5.26-0.392,7.682l-14.008-13.088l-2.641-25.827
			c-0.562-5.494-5.475-9.482-10.966-8.931C195.434,223.944,191.435,228.853,191.997,234.347z M328.518,384.023v42.793H183.481
			v-42.793H328.518z M334.793,226.363l-9.205-0.852l16.654-15.561c4.035-3.771,4.25-10.099,0.479-14.134
			c-3.77-4.035-10.098-4.251-14.134-0.479L297.376,224.5l1.36-13.301c0.562-5.494-3.437-10.403-8.931-10.966
			c-5.515-0.555-10.404,3.437-10.966,8.931l-3.693,36.106l-24.974,23.334c-0.656-5.743-1.179-12.519-1.239-19.774v-2.732
			c0.167-20.023,4.07-43.071,18.389-57.993c24.345-25.369,73.381-21.616,91.03-19.292c3.047,17.552,8.806,66.401-15.537,91.77
			c-19.392,20.211-54.459,21.938-76.841,20.629l40.055-37.425l26.922,2.49c0.313,0.029,0.624,0.044,0.933,0.044
			c5.106,0,9.466-3.894,9.945-9.08C344.338,231.742,340.293,226.871,334.793,226.363z M119.327,384.023h44.154v42.793h-44.154
			V384.023z M425.23,492H86.77v-45.184h338.46V492z"/>
		<path d="M395.78,467.45c-0.131-0.631-0.32-1.261-0.57-1.87c-0.25-0.601-0.561-1.181-0.92-1.721c-0.37-0.55-0.79-1.06-1.25-1.52
			c-1.86-1.861-4.44-2.93-7.07-2.93s-5.21,1.07-7.07,2.93c-0.46,0.46-0.88,0.97-1.239,1.52c-0.36,0.54-0.67,1.12-0.92,1.721
			c-0.25,0.609-0.44,1.239-0.57,1.87c-0.13,0.649-0.2,1.31-0.2,1.96c0,0.649,0.07,1.309,0.2,1.949c0.13,0.641,0.32,1.27,0.57,1.87
			c0.25,0.61,0.56,1.19,0.92,1.73c0.359,0.55,0.779,1.06,1.239,1.52c1.86,1.861,4.44,2.931,7.07,2.931s5.21-1.07,7.07-2.931
			c0.46-0.46,0.88-0.97,1.24-1.52c0.369-0.54,0.67-1.12,0.92-1.73c0.25-0.599,0.449-1.229,0.58-1.87
			c0.129-0.639,0.189-1.3,0.189-1.949C395.969,468.76,395.91,468.099,395.78,467.45z"/>
		<path d="M346.141,459.408H126.028c-5.523,0-10,4.478-10,10c0,5.522,4.477,10,10,10h220.114c5.522,0,9.999-4.478,9.999-10
			C356.141,463.886,351.663,459.408,346.141,459.408z"/>
</svg>
