<svg xmlns="http://www.w3.org/2000/svg" height="512pt" version="1.1" viewBox="-66 0 512 512.00017" width="512pt">
<g id="surface1">
<path d="M 375.644531 284.058594 C 365.457031 234.410156 336.542969 191.703125 294.234375 163.800781 C 251.925781 135.898438 201.285156 126.144531 151.636719 136.332031 C 149.714844 136.726562 147.804688 137.160156 145.898438 137.613281 C 139.277344 108.886719 137.585938 84.855469 140.019531 51.992188 C 153.253906 64.054688 176.90625 82.328125 207.03125 91.78125 C 207.683594 92.085938 208.371094 92.296875 209.078125 92.40625 C 215.621094 94.355469 222.460938 95.882812 229.558594 96.828125 C 235.25 97.589844 241.082031 97.96875 247.023438 97.96875 C 255.167969 97.96875 263.519531 97.257812 272.003906 95.832031 C 276.085938 95.148438 278.835938 91.285156 278.152344 87.203125 C 278.128906 87.074219 278.09375 86.945312 278.066406 86.820312 C 277.207031 82.953125 273.472656 80.390625 269.523438 81.058594 C 268.199219 81.28125 266.882812 81.46875 265.566406 81.652344 L 249.886719 58.3125 L 315 66.570312 C 310.03125 68.898438 304.230469 71.355469 297.769531 73.644531 C 294.011719 74.980469 291.988281 79.003906 293.085938 82.785156 C 293.125 82.925781 293.160156 83.066406 293.210938 83.207031 C 294.59375 87.109375 298.875 89.148438 302.773438 87.765625 C 326.0625 79.511719 341.441406 69.261719 342.082031 68.828125 C 343.863281 67.632812 345.046875 65.730469 345.328125 63.605469 C 345.34375 63.492188 345.347656 63.382812 345.355469 63.269531 C 345.378906 63.140625 345.40625 63.011719 345.421875 62.878906 C 345.835938 59.628906 344.09375 56.605469 341.308594 55.226562 C 335.492188 49.039062 318.988281 32.730469 295.242188 19.4375 C 294.359375 18.648438 293.332031 18.101562 292.246094 17.800781 C 278.128906 10.246094 261.625 3.898438 243.402344 1.308594 C 243.285156 1.285156 243.164062 1.273438 243.046875 1.253906 C 242.808594 1.222656 242.578125 1.183594 242.339844 1.152344 C 200.742188 -4.402344 162.480469 11.382812 143.078125 21.480469 C 143.273438 19.886719 143.46875 18.277344 143.675781 16.640625 C 144.1875 12.535156 141.28125 8.789062 137.175781 8.273438 C 133.0625 7.753906 129.324219 10.667969 128.808594 14.773438 C 127.917969 21.859375 127.152344 28.546875 126.507812 34.925781 C 126.496094 34.984375 126.484375 35.042969 126.472656 35.105469 C 126.453125 35.285156 126.445312 35.464844 126.433594 35.640625 C 122.125 78.578125 123.453125 107.003906 131.492188 141.644531 C 96.511719 152.953125 65.296875 174.28125 42.113281 203.039062 C 14.933594 236.761719 -0.0234375 279.046875 0 322.113281 C 0.00390625 326.25 3.355469 329.601562 7.492188 329.601562 C 7.492188 329.601562 7.492188 329.601562 7.496094 329.601562 C 7.550781 329.601562 7.605469 329.59375 7.664062 329.59375 C 11.722656 329.5 14.984375 326.1875 14.980469 322.105469 C 14.960938 282.453125 28.738281 243.503906 53.777344 212.441406 C 74.917969 186.21875 103.320312 166.703125 135.152344 156.210938 C 135.503906 157.515625 135.867188 158.835938 136.234375 160.164062 C 140.117188 174.148438 144.957031 189.507812 150.824219 207.316406 C 140.882812 209.671875 134.632812 209.820312 132.8125 209.390625 C 129.460938 207.464844 125.140625 208.402344 122.914062 211.640625 C 120.566406 215.046875 121.429688 219.710938 124.835938 222.054688 C 126.488281 223.195312 129.300781 224.539062 135.402344 224.539062 C 137.207031 224.539062 139.300781 224.421875 141.734375 224.148438 C 148.226562 223.414062 155.851562 221.738281 163.785156 219.308594 C 171.636719 216.902344 179.105469 213.925781 184.816406 210.929688 C 192.199219 207.058594 196.152344 203.574219 197.636719 199.628906 C 199.097656 195.757812 197.140625 191.4375 193.269531 189.980469 C 189.609375 188.601562 185.539062 190.277344 183.878906 193.742188 C 182.480469 195.246094 176.390625 199.105469 165.195312 203.066406 C 158.972656 184.171875 153.929688 168.207031 149.996094 153.800781 C 149.84375 153.25 149.695312 152.695312 149.546875 152.144531 C 151.242188 151.742188 152.941406 151.359375 154.648438 151.007812 C 156.433594 150.640625 158.222656 150.3125 160.011719 150 C 204.007812 142.363281 248.542969 151.613281 285.988281 176.308594 C 324.957031 202.007812 351.585938 241.34375 360.96875 287.070312 C 370.351562 332.796875 361.367188 379.441406 335.667969 418.410156 C 309.96875 457.378906 270.632812 484.007812 224.90625 493.390625 C 203.378906 497.808594 181.652344 498.152344 160.613281 494.601562 C 136.964844 490.605469 114.191406 481.691406 93.566406 468.089844 C 54.597656 442.390625 27.96875 403.054688 18.585938 357.328125 C 18.257812 355.734375 17.949219 354.121094 17.667969 352.527344 C 16.957031 348.511719 13.167969 345.8125 9.152344 346.433594 C 9.097656 346.445312 9.042969 346.445312 8.988281 346.457031 C 4.914062 347.175781 2.195312 351.0625 2.917969 355.136719 C 3.222656 356.863281 3.558594 358.613281 3.910156 360.339844 C 14.097656 409.984375 43.007812 452.695312 85.320312 480.597656 C 116.695312 501.289062 152.652344 512 189.390625 512 C 202.191406 512 215.089844 510.699219 227.917969 508.066406 C 277.566406 497.878906 320.273438 468.96875 348.175781 426.660156 C 376.074219 384.347656 385.832031 333.707031 375.644531 284.058594 Z M 218.613281 39.242188 L 244.390625 16.621094 C 255.992188 18.605469 266.863281 22.332031 276.746094 26.902344 L 257.113281 44.125 Z M 223.5 15.019531 L 198.769531 36.722656 L 156.972656 31.421875 C 168.898438 25.863281 185.601562 19.539062 204.460938 16.625 C 210.609375 15.675781 216.988281 15.097656 223.5 15.019531 Z M 156.648438 46.480469 L 177.347656 49.109375 L 190.457031 68.820312 C 176.785156 61.929688 165.257812 53.613281 156.648438 46.480469 Z M 290.953125 34.363281 C 300.507812 40 308.71875 46.09375 315.25 51.503906 L 276.957031 46.644531 Z M 248.398438 82.960938 C 242.644531 83.023438 237.011719 82.710938 231.542969 81.980469 C 231.371094 81.957031 231.207031 81.929688 231.039062 81.90625 C 225.476562 81.136719 220.074219 79.953125 214.851562 78.457031 L 196.996094 51.601562 L 230.160156 55.808594 Z M 248.398438 82.960938 " style=" stroke:none;fill-rule:nonzero;fill:rgb(0%,0%,0%);fill-opacity:1;" />
<path d="M 79.75 268.570312 C 80.160156 268.300781 80.539062 267.980469 80.890625 267.640625 C 81.238281 267.292969 81.546875 266.914062 81.816406 266.503906 C 82.085938 266.09375 82.316406 265.652344 82.507812 265.203125 C 82.695312 264.753906 82.835938 264.285156 82.9375 263.804688 C 83.035156 263.328125 83.085938 262.828125 83.085938 262.339844 C 83.085938 261.859375 83.035156 261.359375 82.9375 260.878906 C 82.835938 260.402344 82.695312 259.929688 82.507812 259.480469 C 82.316406 259.023438 82.085938 258.59375 81.816406 258.183594 C 81.546875 257.773438 81.238281 257.394531 80.890625 257.042969 C 80.539062 256.695312 80.160156 256.386719 79.75 256.117188 C 79.339844 255.847656 78.910156 255.617188 78.453125 255.425781 C 78.003906 255.238281 77.535156 255.097656 77.054688 254.996094 C 76.09375 254.808594 75.097656 254.808594 74.128906 254.996094 C 73.648438 255.097656 73.179688 255.238281 72.730469 255.425781 C 72.28125 255.617188 71.839844 255.847656 71.429688 256.117188 C 71.023438 256.386719 70.640625 256.695312 70.292969 257.042969 C 69.953125 257.394531 69.632812 257.773438 69.363281 258.183594 C 69.09375 258.59375 68.863281 259.023438 68.675781 259.480469 C 68.484375 259.929688 68.34375 260.402344 68.246094 260.878906 C 68.15625 261.359375 68.105469 261.859375 68.105469 262.339844 C 68.105469 262.828125 68.15625 263.328125 68.246094 263.804688 C 68.34375 264.285156 68.484375 264.753906 68.675781 265.203125 C 68.863281 265.652344 69.09375 266.09375 69.363281 266.503906 C 69.632812 266.914062 69.953125 267.292969 70.292969 267.640625 C 70.640625 267.980469 71.023438 268.300781 71.429688 268.570312 C 71.839844 268.839844 72.28125 269.070312 72.730469 269.257812 C 73.179688 269.449219 73.648438 269.589844 74.128906 269.6875 C 74.617188 269.789062 75.105469 269.828125 75.597656 269.828125 C 76.085938 269.828125 76.574219 269.789062 77.054688 269.6875 C 77.535156 269.589844 78.003906 269.449219 78.453125 269.257812 C 78.914062 269.070312 79.34375 268.839844 79.75 268.570312 Z M 79.75 268.570312 " style=" stroke:none;fill-rule:nonzero;fill:rgb(0%,0%,0%);fill-opacity:1;" />
<path d="M 126.992188 307.421875 C 127.171875 307.871094 127.402344 308.3125 127.683594 308.71875 C 127.953125 309.128906 128.261719 309.507812 128.609375 309.847656 C 128.949219 310.199219 129.339844 310.507812 129.75 310.789062 C 130.148438 311.058594 130.589844 311.289062 131.039062 311.476562 C 131.488281 311.65625 131.964844 311.804688 132.445312 311.90625 C 132.925781 311.996094 133.414062 312.046875 133.902344 312.046875 C 134.394531 312.046875 134.882812 311.996094 135.371094 311.90625 C 135.84375 311.804688 136.320312 311.65625 136.769531 311.476562 C 137.21875 311.289062 137.660156 311.058594 138.058594 310.789062 C 138.480469 310.507812 138.859375 310.199219 139.207031 309.847656 C 139.546875 309.507812 139.855469 309.128906 140.136719 308.71875 C 140.40625 308.3125 140.636719 307.871094 140.824219 307.421875 C 141.003906 306.972656 141.15625 306.503906 141.246094 306.023438 C 141.34375 305.535156 141.394531 305.046875 141.394531 304.554688 C 141.394531 304.066406 141.34375 303.578125 141.246094 303.097656 C 141.15625 302.617188 141.003906 302.148438 140.824219 301.6875 C 140.636719 301.238281 140.40625 300.808594 140.136719 300.402344 C 139.855469 299.992188 139.546875 299.601562 139.207031 299.261719 C 138.859375 298.914062 138.480469 298.601562 138.058594 298.332031 C 137.660156 298.0625 137.21875 297.824219 136.769531 297.644531 C 136.320312 297.453125 135.84375 297.304688 135.371094 297.214844 C 134.402344 297.015625 133.40625 297.015625 132.445312 297.214844 C 131.964844 297.304688 131.488281 297.453125 131.039062 297.644531 C 130.589844 297.824219 130.148438 298.0625 129.75 298.332031 C 129.339844 298.601562 128.949219 298.914062 128.609375 299.261719 C 128.261719 299.601562 127.953125 299.992188 127.683594 300.402344 C 127.402344 300.808594 127.171875 301.238281 126.992188 301.6875 C 126.804688 302.148438 126.652344 302.617188 126.5625 303.097656 C 126.464844 303.578125 126.414062 304.066406 126.414062 304.554688 C 126.414062 305.046875 126.464844 305.535156 126.5625 306.023438 C 126.652344 306.503906 126.804688 306.972656 126.992188 307.421875 Z M 126.992188 307.421875 " style=" stroke:none;fill-rule:nonzero;fill:rgb(0%,0%,0%);fill-opacity:1;" />
<path d="M 302.074219 295.335938 C 302.484375 295.605469 302.914062 295.847656 303.375 296.027344 C 303.824219 296.214844 304.292969 296.367188 304.769531 296.457031 C 305.25 296.554688 305.75 296.605469 306.238281 296.605469 C 306.71875 296.605469 307.21875 296.554688 307.699219 296.457031 C 308.175781 296.367188 308.648438 296.214844 309.097656 296.027344 C 309.554688 295.847656 309.984375 295.605469 310.394531 295.335938 C 310.804688 295.066406 311.183594 294.757812 311.53125 294.410156 C 311.882812 294.070312 312.191406 293.679688 312.460938 293.269531 C 312.730469 292.859375 312.960938 292.429688 313.152344 291.980469 C 313.339844 291.523438 313.480469 291.050781 313.582031 290.574219 C 313.679688 290.09375 313.730469 289.605469 313.730469 289.113281 C 313.730469 288.625 313.679688 288.136719 313.582031 287.648438 C 313.480469 287.167969 313.339844 286.699219 313.152344 286.25 C 312.960938 285.800781 312.730469 285.359375 312.460938 284.949219 C 312.191406 284.539062 311.882812 284.160156 311.53125 283.820312 C 311.183594 283.472656 310.804688 283.164062 310.394531 282.882812 C 309.984375 282.613281 309.554688 282.382812 309.097656 282.195312 C 308.648438 282.003906 308.175781 281.863281 307.699219 281.765625 C 306.730469 281.574219 305.738281 281.574219 304.769531 281.765625 C 304.292969 281.863281 303.824219 282.003906 303.375 282.195312 C 302.914062 282.382812 302.484375 282.613281 302.074219 282.882812 C 301.664062 283.164062 301.285156 283.472656 300.9375 283.820312 C 299.546875 285.210938 298.738281 287.136719 298.738281 289.113281 C 298.738281 291.082031 299.546875 293.019531 300.9375 294.410156 C 301.285156 294.757812 301.664062 295.066406 302.074219 295.335938 Z M 302.074219 295.335938 " style=" stroke:none;fill-rule:nonzero;fill:rgb(0%,0%,0%);fill-opacity:1;" />
<path d="M 217.46875 340.851562 C 217.878906 341.121094 218.308594 341.351562 218.769531 341.53125 C 219.21875 341.71875 219.6875 341.871094 220.167969 341.960938 C 220.644531 342.058594 221.144531 342.109375 221.636719 342.109375 C 222.113281 342.109375 222.613281 342.058594 223.09375 341.960938 C 223.574219 341.871094 224.042969 341.71875 224.492188 341.53125 C 224.949219 341.351562 225.378906 341.121094 225.789062 340.851562 C 226.199219 340.570312 226.578125 340.261719 226.929688 339.910156 C 228.328125 338.523438 229.125 336.585938 229.125 334.617188 C 229.125 334.128906 229.074219 333.640625 228.976562 333.148438 C 228.875 332.679688 228.738281 332.203125 228.546875 331.75 C 228.359375 331.300781 228.125 330.863281 227.859375 330.464844 C 227.585938 330.054688 227.269531 329.664062 226.929688 329.324219 C 226.578125 328.976562 226.199219 328.664062 225.789062 328.386719 C 225.378906 328.117188 224.949219 327.886719 224.492188 327.695312 C 224.042969 327.515625 223.574219 327.367188 223.09375 327.277344 C 222.125 327.078125 221.136719 327.078125 220.167969 327.277344 C 219.6875 327.367188 219.21875 327.515625 218.769531 327.695312 C 218.308594 327.886719 217.878906 328.117188 217.46875 328.386719 C 217.0625 328.664062 216.679688 328.976562 216.332031 329.324219 C 215.992188 329.664062 215.671875 330.054688 215.402344 330.464844 C 215.132812 330.863281 214.902344 331.300781 214.714844 331.75 C 214.523438 332.203125 214.382812 332.679688 214.28125 333.148438 C 214.183594 333.640625 214.132812 334.128906 214.132812 334.617188 C 214.132812 336.585938 214.941406 338.523438 216.332031 339.910156 C 216.679688 340.261719 217.058594 340.570312 217.46875 340.851562 Z M 217.46875 340.851562 " style=" stroke:none;fill-rule:nonzero;fill:rgb(0%,0%,0%);fill-opacity:1;" />
<path d="M 204.253906 462.140625 C 204.664062 462.410156 205.09375 462.648438 205.554688 462.828125 C 206.003906 463.019531 206.472656 463.167969 206.953125 463.257812 C 207.429688 463.359375 207.929688 463.40625 208.421875 463.40625 C 208.910156 463.40625 209.398438 463.359375 209.878906 463.257812 C 210.359375 463.167969 210.828125 463.019531 211.285156 462.828125 C 211.734375 462.648438 212.167969 462.410156 212.574219 462.140625 C 212.984375 461.871094 213.363281 461.558594 213.714844 461.210938 C 215.113281 459.820312 215.910156 457.882812 215.910156 455.917969 C 215.910156 453.949219 215.113281 452.011719 213.714844 450.625 C 213.363281 450.273438 212.984375 449.964844 212.574219 449.683594 C 212.167969 449.414062 211.734375 449.183594 211.285156 448.996094 C 210.828125 448.816406 210.359375 448.667969 209.878906 448.578125 C 208.910156 448.375 207.921875 448.375 206.953125 448.578125 C 206.472656 448.667969 206.003906 448.816406 205.554688 448.996094 C 205.09375 449.183594 204.664062 449.414062 204.253906 449.683594 C 203.847656 449.964844 203.464844 450.273438 203.117188 450.625 C 201.730469 452.011719 200.929688 453.941406 200.929688 455.917969 C 200.929688 457.882812 201.730469 459.820312 203.117188 461.210938 C 203.464844 461.558594 203.847656 461.871094 204.253906 462.140625 Z M 204.253906 462.140625 " style=" stroke:none;fill-rule:nonzero;fill:rgb(0%,0%,0%);fill-opacity:1;" />
<path d="M 284.90625 387.730469 C 285.085938 388.191406 285.324219 388.621094 285.59375 389.03125 C 285.863281 389.441406 286.171875 389.820312 286.523438 390.167969 C 286.863281 390.507812 287.253906 390.828125 287.664062 391.097656 C 288.0625 391.367188 288.5 391.597656 288.949219 391.785156 C 289.410156 391.976562 289.878906 392.117188 290.359375 392.214844 C 290.835938 392.316406 291.328125 392.355469 291.816406 392.355469 C 292.304688 392.355469 292.796875 392.316406 293.285156 392.214844 C 293.765625 392.117188 294.234375 391.976562 294.683594 391.785156 C 295.132812 391.597656 295.574219 391.367188 295.980469 391.097656 C 296.390625 390.828125 296.769531 390.507812 297.121094 390.167969 C 298.507812 388.769531 299.308594 386.84375 299.308594 384.875 C 299.308594 384.386719 299.257812 383.886719 299.167969 383.40625 C 299.066406 382.929688 298.925781 382.457031 298.738281 382.007812 C 298.546875 381.550781 298.320312 381.121094 298.046875 380.710938 C 297.769531 380.300781 297.460938 379.921875 297.121094 379.570312 C 296.769531 379.234375 296.390625 378.914062 295.980469 378.644531 C 295.570312 378.375 295.132812 378.144531 294.683594 377.953125 C 294.234375 377.765625 293.761719 377.625 293.285156 377.523438 C 292.316406 377.335938 291.316406 377.335938 290.355469 377.523438 C 289.878906 377.625 289.410156 377.765625 288.949219 377.953125 C 288.5 378.144531 288.058594 378.375 287.660156 378.644531 C 287.253906 378.914062 286.863281 379.234375 286.523438 379.570312 C 286.171875 379.921875 285.863281 380.300781 285.59375 380.710938 C 285.324219 381.121094 285.082031 381.550781 284.902344 382.007812 C 284.714844 382.457031 284.566406 382.929688 284.476562 383.40625 C 284.375 383.886719 284.324219 384.386719 284.324219 384.875 C 284.324219 385.355469 284.375 385.855469 284.476562 386.332031 C 284.566406 386.8125 284.714844 387.28125 284.90625 387.730469 Z M 284.90625 387.730469 " style=" stroke:none;fill-rule:nonzero;fill:rgb(0%,0%,0%);fill-opacity:1;" />
<path d="M 235.476562 233.285156 C 235.667969 233.742188 235.898438 234.171875 236.164062 234.582031 C 236.4375 234.992188 236.753906 235.371094 237.09375 235.722656 C 237.445312 236.0625 237.824219 236.378906 238.234375 236.648438 C 238.644531 236.921875 239.082031 237.148438 239.53125 237.339844 C 239.980469 237.527344 240.453125 237.667969 240.929688 237.769531 C 241.417969 237.867188 241.910156 237.917969 242.398438 237.917969 C 242.890625 237.917969 243.378906 237.867188 243.855469 237.769531 C 244.335938 237.667969 244.804688 237.527344 245.265625 237.339844 C 245.714844 237.148438 246.144531 236.921875 246.554688 236.648438 C 246.964844 236.378906 247.34375 236.0625 247.691406 235.722656 C 248.042969 235.371094 248.351562 234.992188 248.621094 234.582031 C 248.890625 234.171875 249.132812 233.742188 249.308594 233.285156 C 249.5 232.835938 249.640625 232.367188 249.738281 231.886719 C 249.839844 231.40625 249.890625 230.90625 249.890625 230.429688 C 249.890625 229.9375 249.839844 229.4375 249.738281 228.960938 C 249.640625 228.480469 249.5 228.011719 249.308594 227.5625 C 249.128906 227.101562 248.890625 226.671875 248.621094 226.261719 C 248.351562 225.855469 248.042969 225.472656 247.691406 225.125 C 247.351562 224.785156 246.964844 224.464844 246.554688 224.195312 C 246.144531 223.925781 245.714844 223.695312 245.265625 223.507812 C 244.804688 223.316406 244.335938 223.175781 243.855469 223.078125 C 242.898438 222.886719 241.898438 222.886719 240.929688 223.078125 C 240.453125 223.175781 239.980469 223.316406 239.53125 223.507812 C 239.082031 223.695312 238.644531 223.925781 238.234375 224.195312 C 237.824219 224.464844 237.445312 224.785156 237.09375 225.125 C 236.753906 225.472656 236.4375 225.855469 236.164062 226.261719 C 235.894531 226.671875 235.667969 227.101562 235.476562 227.5625 C 235.296875 228.011719 235.148438 228.480469 235.046875 228.960938 C 234.957031 229.4375 234.90625 229.9375 234.90625 230.429688 C 234.90625 230.90625 234.957031 231.40625 235.046875 231.886719 C 235.148438 232.367188 235.296875 232.835938 235.476562 233.285156 Z M 235.476562 233.285156 " style=" stroke:none;fill-rule:nonzero;fill:rgb(0%,0%,0%);fill-opacity:1;" />
<path d="M 140.417969 418.8125 C 140.144531 419.210938 139.90625 419.652344 139.726562 420.101562 C 139.539062 420.550781 139.386719 421.03125 139.296875 421.5 C 139.199219 421.988281 139.148438 422.480469 139.148438 422.96875 C 139.148438 423.457031 139.199219 423.945312 139.296875 424.4375 C 139.386719 424.90625 139.539062 425.386719 139.726562 425.835938 C 139.90625 426.285156 140.144531 426.722656 140.417969 427.121094 C 140.6875 427.53125 140.996094 427.921875 141.34375 428.261719 C 141.683594 428.609375 142.074219 428.921875 142.484375 429.199219 C 142.882812 429.46875 143.324219 429.699219 143.773438 429.878906 C 144.230469 430.070312 144.699219 430.21875 145.179688 430.308594 C 145.660156 430.410156 146.148438 430.457031 146.636719 430.457031 C 148.617188 430.457031 150.542969 429.660156 151.933594 428.261719 C 152.28125 427.921875 152.589844 427.53125 152.871094 427.121094 C 153.140625 426.722656 153.371094 426.285156 153.558594 425.835938 C 153.738281 425.386719 153.890625 424.90625 153.980469 424.4375 C 154.078125 423.945312 154.128906 423.457031 154.128906 422.96875 C 154.128906 422.480469 154.078125 421.988281 153.980469 421.5 C 153.890625 421.03125 153.738281 420.550781 153.558594 420.101562 C 153.371094 419.652344 153.140625 419.210938 152.871094 418.8125 C 152.589844 418.402344 152.28125 418.015625 151.933594 417.675781 C 150.195312 415.925781 147.605469 415.128906 145.179688 415.628906 C 144.699219 415.71875 144.230469 415.867188 143.773438 416.046875 C 143.324219 416.238281 142.882812 416.464844 142.484375 416.734375 C 142.074219 417.015625 141.683594 417.324219 141.34375 417.675781 C 140.996094 418.015625 140.6875 418.402344 140.417969 418.8125 Z M 140.417969 418.8125 " style=" stroke:none;fill-rule:nonzero;fill:rgb(0%,0%,0%);fill-opacity:1;" />
<path d="M 87.722656 360.445312 C 87.269531 360.265625 86.800781 360.117188 86.324219 360.015625 C 85.355469 359.828125 84.363281 359.828125 83.394531 360.015625 C 82.917969 360.117188 82.449219 360.265625 81.996094 360.445312 C 81.539062 360.636719 81.109375 360.867188 80.699219 361.136719 C 80.289062 361.414062 79.910156 361.722656 79.5625 362.0625 C 79.222656 362.414062 78.902344 362.792969 78.632812 363.203125 C 78.363281 363.613281 78.132812 364.050781 77.941406 364.5 C 77.753906 364.949219 77.613281 365.417969 77.511719 365.898438 C 77.414062 366.386719 77.363281 366.878906 77.363281 367.367188 C 77.363281 367.855469 77.414062 368.347656 77.511719 368.824219 C 77.613281 369.304688 77.753906 369.785156 77.941406 370.234375 C 78.132812 370.683594 78.363281 371.121094 78.632812 371.523438 C 78.902344 371.933594 79.222656 372.320312 79.5625 372.660156 C 80.960938 374.058594 82.886719 374.859375 84.855469 374.859375 C 85.34375 374.859375 85.84375 374.808594 86.324219 374.707031 C 86.800781 374.617188 87.269531 374.46875 87.722656 374.277344 C 88.179688 374.097656 88.609375 373.871094 89.019531 373.601562 C 89.429688 373.320312 89.808594 373.011719 90.15625 372.660156 C 90.496094 372.320312 90.816406 371.933594 91.085938 371.523438 C 91.355469 371.121094 91.585938 370.683594 91.777344 370.234375 C 91.964844 369.785156 92.105469 369.304688 92.207031 368.824219 C 92.304688 368.347656 92.355469 367.855469 92.355469 367.367188 C 92.355469 365.398438 91.546875 363.460938 90.15625 362.0625 C 89.808594 361.722656 89.429688 361.414062 89.019531 361.136719 C 88.609375 360.867188 88.179688 360.636719 87.722656 360.445312 Z M 87.722656 360.445312 " style=" stroke:none;fill-rule:nonzero;fill:rgb(0%,0%,0%);fill-opacity:1;" />
</g>
</svg>