<svg version="1.1" id="Capa_1" xmlns="http://www.w3.org/2000/svg" xmlns:xlink="http://www.w3.org/1999/xlink" x="0px" y="0px"
	 viewBox="0 0 50 50" style="enable-background:new 0 0 50 50;" xml:space="preserve">
<g id="pin">
	<g>
		<path d="M25,10c-4.471,0-8,3.533-8,8c0,4.467,3.529,8,8,8c4.471,0,8-3.533,8-8C33,13.533,29.471,10,25,10z M25,24
			c-3.371,0-6-2.632-6-6c0-3.368,2.629-6,6-6c3.371,0,6,2.632,6,6C31,21.368,28.371,24,25,24z M25,0C15.054,0,7,8.321,7,18
			c0,14.759,18,32,18,32s18-17.241,18-32C43,8.321,34.946,0,25,0z M25,47C20.89,42.694,9,29.424,9,18C9,9.32,16.313,2,25,2
			c8.687,0,16,7.32,16,16C41,29.424,29.11,42.694,25,47z"/>
	</g>
</g>
<g>
</g>
<g>
</g>
<g>
</g>
<g>
</g>
<g>
</g>
<g>
</g>
<g>
</g>
<g>
</g>
<g>
</g>
<g>
</g>
<g>
</g>
<g>
</g>
<g>
</g>
<g>
</g>
<g>
</g>
</svg>
