<?xml version="1.0" encoding="iso-8859-1"?>
<!-- Generator: Adobe Illustrator 19.0.0, SVG Export Plug-In . SVG Version: 6.00 Build 0)  -->
<svg version="1.1" id="Capa_1" xmlns="http://www.w3.org/2000/svg" xmlns:xlink="http://www.w3.org/1999/xlink" x="0px" y="0px"
	 viewBox="0 0 512.001 512.001" style="enable-background:new 0 0 512.001 512.001;" xml:space="preserve">
<g>
	<g>
		<path d="M387.288,258.527c-8.053-20-24.511-35.103-45.153-41.435c-13.981-4.289-28.144-7.586-42.096-9.798
			c-4.105-0.655-7.949,2.146-8.599,6.244c-0.65,4.099,2.146,7.95,6.244,8.599c13.259,2.103,26.731,5.24,40.041,9.323
			c16.286,4.997,29.268,16.909,35.62,32.682c6.323,15.705,5.232,33.201-2.998,48.001l-97.193,174.789
			c-3.496,6.285-9.876,10.039-17.07,10.039c-7.192,0-13.573-3.753-17.068-10.039l-97.356-175.084
			c-8.238-14.815-9.334-32.334-3.007-48.064c6.318-15.709,19.218-27.571,35.388-32.546c13.134-4.041,26.47-7.138,39.636-9.206
			c4.1-0.644,6.902-4.49,6.257-8.59c-0.644-4.1-4.482-6.905-8.59-6.258c-13.869,2.178-27.907,5.438-41.722,9.688
			c-20.525,6.314-36.895,21.369-44.914,41.303c-8.027,19.956-6.636,42.182,3.817,60.978l97.356,175.084
			c6.185,11.123,17.475,17.764,30.203,17.764c0.001,0,0,0,0.001,0c12.726,0,24.019-6.641,30.204-17.764l97.192-174.79
			C393.928,300.664,395.315,278.46,387.288,258.527z"/>
	</g>
</g>
<g>
	<g>
		<path d="M263.286,53.094c-0.1-0.471-0.24-0.952-0.431-1.403c-0.19-0.451-0.42-0.892-0.691-1.293
			c-0.271-0.421-0.591-0.802-0.932-1.152c-1.743-1.743-4.349-2.545-6.782-2.044c-0.481,0.09-0.952,0.24-1.403,0.421
			c-0.461,0.19-0.892,0.421-1.303,0.691c-0.411,0.281-0.792,0.591-1.143,0.932c-0.341,0.351-0.66,0.731-0.932,1.152
			c-0.271,0.401-0.501,0.842-0.69,1.293c-0.19,0.451-0.331,0.932-0.432,1.403c-0.1,0.491-0.14,0.982-0.14,1.473
			c0,1.984,0.802,3.918,2.193,5.31c0.352,0.351,0.731,0.661,1.143,0.932c0.411,0.281,0.842,0.511,1.303,0.701
			c0.451,0.18,0.922,0.331,1.403,0.421c0.48,0.1,0.981,0.15,1.473,0.15c1.974,0,3.907-0.802,5.31-2.204
			c1.393-1.393,2.204-3.327,2.204-5.31C263.436,54.076,263.386,53.585,263.286,53.094z"/>
	</g>
</g>
<g>
	<g>
		<path d="M299.844,19.134C288.445,6.795,272.906,0,256.088,0c-32.865,0-59.601,26.678-59.601,59.472c0,1.6,0.062,3.187,0.186,4.737
			c0.157,1.922,0.41,3.875,0.751,5.83l14.719,82.51c2.485,13.94,11.247,25.379,23.068,31.63v65.859
			c0,11.511,9.365,20.876,20.876,20.876s20.875-9.365,20.875-20.876v-65.882c2.756-1.456,5.372-3.199,7.79-5.221
			c8.012-6.712,13.437-16.083,15.279-26.386l6.337-35.519c0.729-4.086-1.992-7.989-6.078-8.718c-4.08-0.728-7.989,1.992-8.718,6.078
			l-6.336,35.517c-1.222,6.837-4.822,13.055-10.13,17.502c-0.913,0.763-1.87,1.463-2.861,2.107
			c-0.865-0.348-1.808-0.544-2.797-0.544h-26.721c-0.993,0-1.939,0.197-2.808,0.547c-6.655-4.337-11.499-11.303-12.978-19.612
			l-14.715-82.484c-0.26-1.486-0.453-2.985-0.572-4.435c-0.091-1.133-0.137-2.318-0.137-3.52
			c-0.001-24.504,19.994-44.44,44.57-44.44c12.578,0,24.196,5.08,32.718,14.303c8.419,9.113,12.69,21.383,11.719,33.634
			c-0.122,1.474-0.316,2.975-0.57,4.435l-3.238,18.164c-0.728,4.086,1.993,7.989,6.079,8.717c4.082,0.729,7.989-1.992,8.717-6.079
			l3.243-18.192c0.336-1.928,0.587-3.879,0.749-5.827C316.809,47.737,311.1,31.316,299.844,19.134z M250.241,188.964
			c1.917,0.25,3.868,0.383,5.846,0.383c1.963,0,3.915-0.13,5.845-0.386v61.078c0,3.223-2.622,5.846-5.845,5.846
			c-3.224,0-5.846-2.623-5.846-5.846V188.964z"/>
	</g>
</g>
<g>
</g>
<g>
</g>
<g>
</g>
<g>
</g>
<g>
</g>
<g>
</g>
<g>
</g>
<g>
</g>
<g>
</g>
<g>
</g>
<g>
</g>
<g>
</g>
<g>
</g>
<g>
</g>
<g>
</g>
</svg>
