<?xml version="1.0" encoding="iso-8859-1"?>
<!-- Generator: Adobe Illustrator 19.0.0, SVG Export Plug-In . SVG Version: 6.00 Build 0)  -->
<svg version="1.1" id="Capa_1" xmlns="http://www.w3.org/2000/svg" xmlns:xlink="http://www.w3.org/1999/xlink" x="0px" y="0px"
	 viewBox="0 0 512.001 512.001" style="enable-background:new 0 0 512.001 512.001;" xml:space="preserve">
<g>
	<g>
		<path d="M511.58,192.149c-1.412-4.186-5.949-6.433-10.138-5.024l-19.629,6.618l-39.008-115.78l63.747-21.478
			c4.187-1.41,6.438-5.949,5.027-10.135c-1.411-4.188-5.951-6.44-10.135-5.027L437.697,62.8l-7.165-21.266
			c-0.677-2.011-2.126-3.67-4.027-4.612c-1.901-0.942-4.099-1.092-6.109-0.415l-65.892,22.205
			c-4.187,1.411-6.437,5.948-5.026,10.135l12.134,36.019l-33.704,11.358l-93.477-15.439c-0.916-0.154-1.853-0.143-2.766,0.027
			l-83.139,15.455c-1.296,0.242-2.513,0.799-3.541,1.623L33.419,207.32c-10.472,8.18-12.62,23.048-4.886,33.851
			c5.562,7.766,15.213,11.659,24.6,9.914c2.784-0.524,5.434-1.507,7.877-2.924l120.563-66.107l65.207,25.685l-30.061,5.584
			c-8.332,1.551-15.56,6.253-20.355,13.239c-4.796,6.987-6.581,15.424-5.03,23.751c2.828,15.249,16.193,25.936,31.183,25.936
			c1.913,0,3.854-0.175,5.8-0.536l122.536-22.771c0.393-0.073,0.778-0.175,1.155-0.305l28.464-9.851
			c4.176-1.445,6.389-6.001,4.944-10.177c-1.445-4.174-6.001-6.384-10.176-4.944l-27.899,9.655l-121.944,22.661
			c-8.529,1.572-16.752-4.068-18.334-12.594c-0.769-4.13,0.116-8.311,2.493-11.774c2.377-3.463,5.961-5.794,10.089-6.562
			l57.465-10.676c3.508-0.652,6.16-3.549,6.502-7.101c0.341-3.552-1.711-6.9-5.031-8.208l-94.634-37.276
			c-2.211-0.869-4.694-0.714-6.779,0.429L53.225,234.181c-0.067,0.037-0.134,0.075-0.202,0.114c-0.88,0.515-1.838,0.874-2.832,1.06
			c-3.291,0.61-6.689-0.761-8.65-3.5c-2.724-3.804-1.966-9.043,1.805-11.989l110.08-88.237l79.782-14.83l94.06,15.534
			c1.293,0.215,2.618,0.108,3.858-0.311l35.593-11.994l46.303,137.449c1.125,3.34,4.241,5.446,7.581,5.446
			c0.846,0,1.708-0.135,2.555-0.421l65.902-22.196c2.011-0.677,3.67-2.125,4.613-4.026c0.943-1.901,1.092-4.099,0.415-6.11
			l-7.166-21.268l19.632-6.618C510.741,200.874,512.991,196.335,511.58,192.149z M425.631,244.788L367.194,71.319l50.729-17.095
			l58.447,173.476L425.631,244.788z"/>
	</g>
</g>
<g>
	<g>
		<path d="M502.878,391.309H375.347c-1.773,0-3.494,0.589-4.896,1.672l-63.939,49.478c-30.071,23.27-72.074,23.27-102.147,0
			l-63.939-49.478c-1.402-1.085-3.123-1.672-4.896-1.672H8c-4.418,0-8,3.581-8,8c0,4.418,3.582,8,8,8h124.797l61.777,47.805
			c17.92,13.868,39.389,20.8,60.865,20.799c21.471-0.002,42.949-6.935,60.865-20.799l61.777-47.805h124.797c4.418,0,8-3.582,8-8
			C510.878,394.89,507.296,391.309,502.878,391.309z"/>
	</g>
</g>
<g>
	<g>
		<path d="M179.921,281.341c-2.774-1.969-6.49-1.969-9.264,0c-10.688,7.589-17.068,19.931-17.068,33.013
			c0,13.083,6.381,25.423,17.068,33.012c1.389,0.985,3.01,1.477,4.633,1.477c1.622,0,3.245-0.493,4.631-1.477
			c10.688-7.589,17.068-19.931,17.068-33.012C196.989,301.27,190.608,288.93,179.921,281.341z M175.29,330.036
			c-3.636-4.358-5.7-9.902-5.7-15.682c0.001-5.781,2.064-11.325,5.7-15.683c3.636,4.358,5.7,9.902,5.7,15.683
			C180.99,320.134,178.926,325.678,175.29,330.036z"/>
	</g>
</g>
<g>
	<g>
		<path d="M267.59,353.316c-2.774-1.969-6.49-1.969-9.264,0c-10.688,7.589-17.068,19.931-17.068,33.012
			c0,13.082,6.381,25.423,17.068,33.013c1.387,0.984,3.009,1.477,4.631,1.477s3.245-0.493,4.633-1.477
			c10.687-7.59,17.068-19.933,17.068-33.013C284.658,373.245,278.277,360.905,267.59,353.316z M262.958,402.01
			c-3.636-4.358-5.7-9.902-5.7-15.682c0.001-5.78,2.064-11.324,5.7-15.682c3.636,4.358,5.7,9.902,5.7,15.682
			C268.658,392.108,266.594,397.652,262.958,402.01z"/>
	</g>
</g>
<g>
</g>
<g>
</g>
<g>
</g>
<g>
</g>
<g>
</g>
<g>
</g>
<g>
</g>
<g>
</g>
<g>
</g>
<g>
</g>
<g>
</g>
<g>
</g>
<g>
</g>
<g>
</g>
<g>
</g>
</svg>
