<svg version="1.1" xmlns="http://www.w3.org/2000/svg" xmlns:xlink="http://www.w3.org/1999/xlink" x="0px" y="0px"
	 viewBox="0 0 40.997 40.997" style="enable-background:new 0 0 40.997 40.997;" xml:space="preserve">
<g id="search">
	<g>
		<path d="M30.597,29.18c2.765-3.099,4.459-7.173,4.459-11.652C35.056,7.847,27.208,0,17.528,0C7.848,0,0,7.847,0,17.528
			c0,9.68,7.848,17.528,17.528,17.528c4.479,0,8.553-1.695,11.652-4.459l10.401,10.4l1.416-1.416L30.597,29.18z M17.528,33.052
			c-8.56,0-15.525-6.964-15.525-15.525S8.968,2.003,17.528,2.003c8.56,0,15.525,6.964,15.525,15.525S26.088,33.052,17.528,33.052z"
			/>
	</g>
</g>
<g>
</g>
<g>
</g>
<g>
</g>
<g>
</g>
<g>
</g>
<g>
</g>
<g>
</g>
<g>
</g>
<g>
</g>
<g>
</g>
<g>
</g>
<g>
</g>
<g>
</g>
<g>
</g>
<g>
</g>
</svg>
