<svg version="1.1" id="Capa_1" xmlns="http://www.w3.org/2000/svg" xmlns:xlink="http://www.w3.org/1999/xlink" x="0px" y="0px"
	 viewBox="0 0 346.593 346.593" style="enable-background:new 0 0 346.593 346.593;" xml:space="preserve">
<g>
	<g>
		<path d="M311.855,288.367l-52.2-69.72c-4.707-6.294-11.334-10.885-18.88-13.08l-27.48-36.52l35.56-26.64
			c0.385-0.201,0.747-0.442,1.08-0.72c7.043-5.683,8.509-15.837,3.36-23.28c-0.208-0.343-0.449-0.665-0.72-0.96l-60.28-80.48
			c-0.199-0.313-0.427-0.608-0.68-0.88c-30.291-39.752-86.855-47.886-127.12-18.28c-0.327,0.197-0.635,0.425-0.92,0.68
			c-39.935,30.433-47.928,87.344-17.92,127.6l60.92,81.36c5.706,7.521,16.393,9.071,24,3.48l36-26.96l27.36,36.56
			c0.035,7.846,2.618,15.469,7.36,21.72l52.2,69.72c12.04,16.116,34.864,19.42,50.98,7.38
			C320.591,327.307,323.895,304.483,311.855,288.367z M123.455,221.367c-2.283,1.669-5.482,1.207-7.2-1.04l-60.88-81.48
			c-26.057-35.101-18.912-84.65,16-110.96c35.101-26.057,84.65-18.912,110.96,16l60.84,81.4c1.669,2.283,1.207,5.482-1.04,7.2
			l-0.04,0.04l-36,26.96l-7.36-9.8c-9.643-12.879-27.901-15.503-40.78-5.86s-15.503,27.901-5.86,40.78l7.36,9.8L123.455,221.367z
			 M197.575,224.887l-35.72-47.6c-5.34-7.722-3.409-18.311,4.314-23.651c7.315-5.059,17.293-3.624,22.886,3.292l35.76,47.6
			c-5.984,0.793-11.639,3.199-16.36,6.96C204.057,215.267,200.372,219.806,197.575,224.887z M295.876,329.409
			c-10.422,7.162-24.597,5.125-32.581-4.682l-52-69.24c-0.176-0.296-0.377-0.577-0.6-0.84c-3.167-4.536-4.742-9.994-4.48-15.52
			c0.596-6.963,3.969-13.393,9.36-17.84c5.153-4.18,11.867-5.916,18.4-4.76h-0.04c6.384,0.871,12.15,4.273,16,9.44l52.2,69.68
			C309.73,306.698,306.928,321.814,295.876,329.409z"/>
	</g>
</g>
<g>
</g>
<g>
</g>
<g>
</g>
<g>
</g>
<g>
</g>
<g>
</g>
<g>
</g>
<g>
</g>
<g>
</g>
<g>
</g>
<g>
</g>
<g>
</g>
<g>
</g>
<g>
</g>
<g>
</g>
</svg>
