<svg version="1.1" id="Capa_1" xmlns="http://www.w3.org/2000/svg" xmlns:xlink="http://www.w3.org/1999/xlink" x="0px" y="0px"
	 viewBox="0 0 52 52" style="enable-background:new 0 0 52 52;" xml:space="preserve">
<g id="sun">
	<g>
		<path d="M45.092,8.323l-1.414-1.414l-5.656,5.656l1.414,1.414L45.092,8.323z M27,0h-2v7.999h2V0z M13.978,12.565L8.322,6.909
			L6.908,8.323l5.656,5.656L13.978,12.565z M7.999,25H0v2h7.999V25z M26,12c-7.731,0-13.999,6.268-13.999,13.999
			c0,7.731,6.268,13.999,13.999,13.999s13.999-6.268,13.999-13.999C39.999,18.268,33.732,12,26,12z M26,37.998
			c-6.616,0-11.999-5.383-11.999-11.999C14.001,19.383,19.384,14,26,14c6.616,0,11.999,5.383,11.999,11.999
			C37.999,32.615,32.617,37.998,26,37.998z M6.909,43.678l1.414,1.414l5.656-5.656l-1.414-1.414L6.909,43.678z M44.001,25v2H52v-2
			H44.001z M38.021,39.436l5.656,5.656l1.414-1.414l-5.656-5.656L38.021,39.436z M25,52h2v-7.999h-2V52z"/>
	</g>
</g>
<g>
</g>
<g>
</g>
<g>
</g>
<g>
</g>
<g>
</g>
<g>
</g>
<g>
</g>
<g>
</g>
<g>
</g>
<g>
</g>
<g>
</g>
<g>
</g>
<g>
</g>
<g>
</g>
<g>
</g>
</svg>
