<?xml version="1.0" encoding="iso-8859-1"?>
<!-- Generator: Adobe Illustrator 19.0.0, SVG Export Plug-In . SVG Version: 6.00 Build 0)  -->
<svg version="1.1" id="Capa_1" xmlns="http://www.w3.org/2000/svg" xmlns:xlink="http://www.w3.org/1999/xlink" x="0px" y="0px"
	 viewBox="0 0 371.697 371.697" style="enable-background:new 0 0 371.697 371.697;" xml:space="preserve">
<g>
	<g>
		<path d="M259.525,80.957c-9.339-0.004-18.604,1.661-27.357,4.917c-7.61-54.501-57.96-92.514-112.461-84.904
			C70.757,7.804,34.215,49.49,33.848,98.914v69.72c0.142,46.561,32.4,86.864,77.8,97.2v84c0.005,5.767,2.309,11.295,6.4,15.36
			c8.43,8.472,22.131,8.506,30.603,0.077c0.026-0.025,0.051-0.051,0.077-0.077c4.088-4.067,6.39-9.593,6.4-15.36v-84
			c6.705-1.517,13.234-3.729,19.48-6.6c5.517-2.529,10.792-5.555,15.76-9.04c10.647,19.704,29.154,33.965,50.92,39.24v64
			c0.022,4.808,1.949,9.411,5.36,12.8c7.035,7.18,18.558,7.297,25.737,0.263c3.509-3.438,5.48-8.15,5.463-13.063v-64
			c35.05-8.595,59.774-39.912,60-76v-54.08C337.869,116.077,302.802,80.977,259.525,80.957z M145.128,141.034
			c-1.368,1.154-2.158,2.851-2.16,4.64v204c0.004,2.536-1.003,4.97-2.8,6.76c-3.733,3.733-9.786,3.734-13.52,0
			c-1.803-1.803-2.811-4.251-2.8-6.8v-135.12c0.038-1.764-0.692-3.457-2-4.64l-33.76-33.4l-0.28-0.32
			c-0.805-0.813-1.325-1.866-1.48-3v-0.24c-0.164-1.583,0.394-3.155,1.52-4.28l0.2-0.2c1.216-1.035,2.823-1.487,4.4-1.24
			c1.09,0.182,2.097,0.699,2.88,1.48l18.12,18.12c2.317,2.43,6.166,2.522,8.596,0.204c1.214-1.158,1.896-2.766,1.884-4.444v-85.92
			c-0.022-5.28,4.24-9.578,9.52-9.6c2.549-0.011,4.998,0.997,6.8,2.8c1.797,1.79,2.804,4.224,2.8,6.76v16.84
			c-0.019,1.995,0.956,3.869,2.6,5c1.039,0.672,2.243,1.045,3.48,1.08c1.621-0.095,3.161-0.745,4.36-1.84l18.12-18.12
			c2.108-2.11,5.527-2.111,7.637-0.003c0.001,0.001,0.002,0.002,0.003,0.003c1.991,2.111,1.991,5.409,0,7.52l-0.28,0.32
			L145.128,141.034z M185.408,238.834c-4.926,3.663-10.221,6.8-15.8,9.36c-4.648,2.172-9.481,3.926-14.44,5.24v-105.28l32.24-32
			l0.36-0.32c2.609-2.794,4.322-6.304,4.92-10.08c0.731-5.412-1.103-10.854-4.96-14.72c-3.711-4.229-9.416-6.126-14.92-4.96
			c-3.723,0.604-7.171,2.335-9.88,4.96l-7.76,7.76c-0.01-7.075-2.813-13.861-7.8-18.88c-3.791-3.489-8.812-5.331-13.96-5.12
			c-5.881-0.032-11.514,2.372-15.56,6.64c-4.091,4.065-6.395,9.593-6.4,15.36v70.92l-7.6-7.76c-6.876-6.818-17.964-6.818-24.84,0
			c-6.744,6.876-6.744,17.884,0,24.76l0.36,0.32l32.24,32v36.4c-17.605-4.592-33.355-14.528-45.08-28.44
			c-13.362-15.738-20.692-35.715-20.68-56.36v-69.72c-0.13-48.247,38.877-87.465,87.125-87.595
			c22.701-0.061,44.534,8.717,60.875,24.475c15.113,14.847,24.588,34.49,26.8,55.56c-6.024,3.472-11.565,7.722-16.48,12.64
			c-14.741,14.669-23.032,34.604-23.04,55.4v54.04C181.132,222.08,182.578,230.664,185.408,238.834z M267.688,190.834
			c-1.368,1.154-2.158,2.851-2.16,4.64v157.96c-0.383,3.314-3.38,5.689-6.694,5.306c-2.786-0.322-4.984-2.52-5.306-5.306v-104.72
			c-0.002-1.789-0.792-3.486-2.16-4.64l-25.96-25.68l-0.28-0.32c-2.44-2.44,1.28-6.56,4-4l14,14
			c2.359,2.389,6.209,2.413,8.598,0.054c1.09-1.076,1.733-2.524,1.802-4.054v-0.28v-66.36c0.383-3.314,3.38-5.689,6.694-5.306
			c2.786,0.322,4.984,2.52,5.306,5.306v13.12c-0.024,3.358,2.678,6.1,6.036,6.124c1.678,0.012,3.286-0.67,4.444-1.884l14-14
			c0.2-0.206,0.429-0.381,0.68-0.52c0.763-0.344,1.637-0.344,2.4,0c1.36,0.688,1.905,2.349,1.217,3.709
			c-0.129,0.255-0.296,0.488-0.497,0.691l-0.28,0.32L267.688,190.834z M325.728,213.434c0.006,15.618-5.537,30.73-15.64,42.64
			c-8.466,9.972-19.678,17.233-32.24,20.88v-78.96l24.44-24.2l0.36-0.32c5.748-5.851,5.748-15.229,0-21.08
			c-1.083-1.065-2.324-1.955-3.68-2.64c-4.184-2.072-9.096-2.072-13.28,0c-1.339,0.676-2.566,1.553-3.64,2.6l-3.72,3.72
			c-0.634-10.032-9.28-17.65-19.311-17.016c-9.731,0.615-17.249,8.788-17.049,18.536v51.64l-4.32-3.8
			c-2.802-2.797-6.601-4.365-10.56-4.36h-0.88c-4.104,0.239-7.926,2.164-10.56,5.32c-4.881,5.886-4.554,14.502,0.76,20l0.36,0.32
			l24.44,24.2v25.68c-12.572-3.589-23.811-10.794-32.32-20.72c-10.058-11.858-15.598-26.891-15.64-42.44v-54.08
			c0-36.583,29.657-66.24,66.24-66.24s66.24,29.657,66.24,66.24V213.434z"/>
	</g>
</g>
<g>
</g>
<g>
</g>
<g>
</g>
<g>
</g>
<g>
</g>
<g>
</g>
<g>
</g>
<g>
</g>
<g>
</g>
<g>
</g>
<g>
</g>
<g>
</g>
<g>
</g>
<g>
</g>
<g>
</g>
</svg>
