<svg xmlns="http://www.w3.org/2000/svg" x="0px" y="0px" viewBox="0 0 48 48">
	<path d="M24,0C10.7,0,0,10.7,0,24s10.7,24,24,24s24-10.7,24-24S37.3,0,24,0z M24,46c-4.5,0-8.7-1.4-12.2-3.7h0l2-9.9
		c0.3-2.4,2.3-4.2,4.6-4.3c1.6,1.2,3.5,2,5.5,2c2.1,0,4-0.8,5.6-2c2.4,0.1,4.5,1.9,4.8,4.4l2,9.7C32.8,44.6,28.6,46,24,46z M16,19
		c0-4.3,3.7-8,8-8s8,3.7,8,8c0,4.5-3.9,9-8,9S16,23.5,16,19z M38.1,40.9l-1.8-8.7c-0.4-2.8-2.4-5.1-5-5.8c1.6-1.9,2.7-4.8,2.7-7.4
		c0-5.4-4.6-10-10-10s-10,4.6-10,10c0,2.5,1.1,5.5,2.7,7.4c-2.5,0.8-4.5,3-4.9,5.7L10,41c-4.9-4-8-10.2-8-17C2,11.9,11.9,2,24,2
		s22,9.9,22,22C46,30.8,42.9,36.8,38.1,40.9z"/>
</svg>
