<?xml version="1.0" encoding="iso-8859-1"?>
<!-- Generator: Adobe Illustrator 19.1.0, SVG Export Plug-In . SVG Version: 6.00 Build 0)  -->
<svg version="1.1" id="Capa_1" xmlns="http://www.w3.org/2000/svg" xmlns:xlink="http://www.w3.org/1999/xlink" x="0px" y="0px"
	 viewBox="0 0 46 46" style="enable-background:new 0 0 46 46;" xml:space="preserve">
<g id="attention">
	<g>
		<path d="M23,32c-1.36,0-2,0.56-2,2c0,1.4,0.6,2,2,2c1.44,0,2-0.6,2-2C25,32.56,24.44,32,23,32z M22,28h2l1-19h-4L22,28z M33,0H13
			L0,13v20l13,13h20l13-13V13L33,0z M44,32L32,44H14L2,32V14L14,2h18l12,12V32z"/>
	</g>
</g>
<g>
</g>
<g>
</g>
<g>
</g>
<g>
</g>
<g>
</g>
<g>
</g>
<g>
</g>
<g>
</g>
<g>
</g>
<g>
</g>
<g>
</g>
<g>
</g>
<g>
</g>
<g>
</g>
<g>
</g>
</svg>
