<svg xmlns="http://www.w3.org/2000/svg" height="511pt" version="1.1" viewBox="-136 1 511 511.99995" width="511pt">
<g id="surface1">
<path d="M 129.285156 270.367188 C 129.523438 270.367188 129.761719 270.359375 129.996094 270.351562 C 174.976562 268.40625 199.214844 250.589844 209.660156 240.144531 C 220.105469 229.699219 237.917969 205.460938 239.863281 160.484375 C 240.0625 155.855469 238.300781 151.320312 235.023438 148.046875 C 231.746094 144.769531 227.210938 143.003906 222.585938 143.203125 C 177.609375 145.148438 153.367188 162.964844 142.921875 173.410156 C 138.5625 177.769531 132.917969 184.546875 127.679688 194.222656 L 127.679688 164.304688 C 129.4375 163.414062 131.054688 162.226562 132.410156 160.746094 C 145.46875 146.507812 167.382812 117.476562 167.382812 83.058594 C 167.382812 48.644531 145.46875 19.613281 132.410156 5.371094 C 129.277344 1.957031 124.824219 0 120.191406 0 C 115.558594 0 111.105469 1.957031 107.972656 5.371094 C 101.863281 12.035156 93.0625 22.804688 85.824219 36.28125 C 83.867188 39.921875 85.234375 44.464844 88.878906 46.417969 C 88.945312 46.457031 89.019531 46.484375 89.085938 46.519531 C 92.691406 48.316406 97.097656 46.941406 99.019531 43.367188 C 105.523438 31.257812 113.480469 21.527344 119.011719 15.496094 C 119.402344 15.066406 119.871094 14.976562 120.191406 14.976562 C 120.511719 14.976562 120.976562 15.066406 121.371094 15.496094 C 123.792969 18.132812 127.046875 21.910156 130.535156 26.574219 C 140.5 39.894531 152.40625 60.515625 152.40625 83.0625 C 152.40625 105.605469 140.5 126.230469 130.535156 139.546875 C 127.046875 144.210938 123.792969 147.988281 121.371094 150.625 C 120.976562 151.054688 120.511719 151.144531 120.191406 151.144531 C 119.871094 151.144531 119.402344 151.054688 119.011719 150.625 C 109.679688 140.453125 87.976562 113.5 87.976562 83.0625 C 87.976562 78.78125 88.40625 74.367188 89.253906 69.941406 C 90.007812 65.988281 87.507812 62.179688 83.632812 61.257812 C 83.527344 61.230469 83.417969 61.199219 83.308594 61.175781 C 79.242188 60.398438 75.320312 63.0625 74.542969 67.125 C 73.519531 72.476562 73 77.835938 73 83.0625 C 73 117.476562 94.910156 146.507812 107.972656 160.75 C 109.328125 162.226562 110.945312 163.414062 112.703125 164.304688 L 112.703125 194.222656 C 107.464844 184.546875 101.820312 177.769531 97.457031 173.410156 C 87.011719 162.964844 62.773438 145.152344 17.796875 143.207031 C 13.160156 143.011719 8.636719 144.769531 5.359375 148.046875 C 2.082031 151.320312 0.316406 155.855469 0.515625 160.484375 C 2.460938 205.460938 20.277344 229.703125 30.722656 240.148438 C 41.167969 250.59375 65.40625 268.40625 110.382812 270.351562 C 110.621094 270.363281 110.859375 270.367188 111.09375 270.367188 C 111.632812 270.367188 112.167969 270.339844 112.703125 270.285156 L 112.703125 315.039062 C 107.464844 305.367188 101.820312 298.589844 97.457031 294.226562 C 87.011719 283.78125 62.773438 265.96875 17.796875 264.023438 C 13.160156 263.824219 8.632812 265.585938 5.359375 268.863281 C 2.082031 272.136719 0.316406 276.671875 0.515625 281.300781 C 2.460938 326.28125 20.273438 350.519531 30.722656 360.964844 C 41.164062 371.410156 65.402344 389.222656 110.382812 391.167969 C 110.621094 391.179688 110.855469 391.183594 111.09375 391.183594 C 111.632812 391.183594 112.167969 391.15625 112.699219 391.101562 L 112.699219 435.855469 C 107.460938 426.183594 101.816406 419.40625 97.457031 415.042969 C 87.011719 404.597656 62.773438 386.785156 17.792969 384.839844 C 13.179688 384.636719 8.632812 386.402344 5.355469 389.679688 C 2.078125 392.957031 0.316406 397.488281 0.515625 402.117188 C 2.460938 447.09375 20.273438 471.335938 30.71875 481.78125 C 41.164062 492.226562 65.402344 510.039062 110.382812 511.984375 C 110.617188 511.996094 110.855469 512 111.09375 512 C 114.335938 512 117.5 511.035156 120.1875 509.277344 C 122.875 511.035156 126.039062 512 129.285156 512 C 129.519531 512 129.757812 511.996094 129.992188 511.984375 C 148.566406 511.179688 183.367188 506.433594 207.71875 483.65625 C 210.738281 480.828125 210.898438 476.089844 208.070312 473.070312 C 207.980469 472.972656 207.882812 472.886719 207.789062 472.796875 C 204.9375 470.050781 200.410156 469.984375 197.488281 472.71875 C 188.546875 481.078125 167.804688 495.359375 129.347656 497.023438 C 128.761719 497.050781 128.371094 496.78125 128.144531 496.554688 C 127.917969 496.328125 127.652344 495.933594 127.675781 495.351562 C 129.46875 453.953125 146.335938 432.804688 153.507812 425.632812 C 160.679688 418.464844 181.824219 401.59375 223.226562 399.800781 C 223.820312 399.769531 224.203125 400.042969 224.429688 400.269531 C 224.65625 400.496094 224.921875 400.890625 224.898438 401.472656 C 224.4375 412.089844 222.292969 432.679688 213.097656 451.265625 C 211.308594 454.878906 212.714844 459.230469 216.21875 461.144531 C 216.308594 461.195312 216.394531 461.25 216.488281 461.296875 C 220.195312 463.128906 224.683594 461.613281 226.519531 457.90625 C 236.9375 436.855469 239.347656 413.917969 239.859375 402.117188 C 240.058594 397.488281 238.296875 392.957031 235.019531 389.679688 C 231.742188 386.402344 227.207031 384.636719 222.578125 384.839844 C 177.601562 386.785156 153.363281 404.597656 142.917969 415.042969 C 138.554688 419.40625 132.910156 426.179688 127.671875 435.855469 L 127.671875 391.101562 C 128.207031 391.15625 128.742188 391.183594 129.28125 391.183594 C 129.515625 391.183594 129.753906 391.179688 129.992188 391.167969 C 174.96875 389.222656 199.207031 371.410156 209.652344 360.964844 C 220.097656 350.519531 237.914062 326.28125 239.859375 281.300781 C 240.058594 276.671875 238.292969 272.136719 235.015625 268.863281 C 231.742188 265.585938 227.207031 263.824219 222.578125 264.023438 C 177.601562 265.96875 153.363281 283.78125 142.917969 294.226562 C 138.554688 298.589844 132.910156 305.367188 127.671875 315.042969 L 127.671875 270.289062 C 128.210938 270.335938 128.746094 270.367188 129.285156 270.367188 Z M 223.308594 158.164062 C 223.847656 158.164062 224.214844 158.417969 224.433594 158.636719 C 224.660156 158.863281 224.925781 159.257812 224.902344 159.835938 C 223.109375 201.238281 206.242188 222.386719 199.070312 229.554688 C 191.898438 236.726562 170.753906 253.597656 129.351562 255.386719 C 128.765625 255.417969 128.375 255.148438 128.148438 254.917969 C 127.921875 254.691406 127.65625 254.300781 127.679688 253.71875 C 129.472656 212.316406 146.339844 191.167969 153.511719 184 C 160.683594 176.828125 181.828125 159.957031 223.234375 158.167969 C 223.257812 158.164062 223.285156 158.164062 223.308594 158.164062 Z M 17.074219 158.164062 C 17.097656 158.164062 17.125 158.164062 17.148438 158.167969 C 24.765625 158.496094 31.6875 159.339844 37.972656 160.535156 C 65.851562 165.839844 81.015625 178.148438 86.871094 184 C 94.039062 191.171875 110.910156 212.316406 112.699219 253.71875 C 112.726562 254.300781 112.460938 254.691406 112.234375 254.917969 C 112.003906 255.148438 111.59375 255.417969 111.03125 255.386719 C 105.878906 255.164062 101.039062 254.707031 96.5 254.066406 C 64.582031 249.546875 47.589844 235.832031 41.3125 229.554688 C 34.140625 222.386719 17.269531 201.238281 15.480469 159.835938 C 15.457031 159.257812 15.722656 158.863281 15.949219 158.636719 C 16.164062 158.417969 16.535156 158.164062 17.074219 158.164062 Z M 15.480469 280.652344 C 15.457031 280.070312 15.722656 279.679688 15.949219 279.453125 C 16.164062 279.234375 16.535156 278.984375 17.074219 278.984375 C 17.097656 278.984375 17.125 278.984375 17.148438 278.984375 C 24.765625 279.3125 31.6875 280.15625 37.972656 281.351562 C 65.851562 286.65625 81.015625 298.964844 86.871094 304.816406 C 94.039062 311.988281 110.910156 333.132812 112.699219 374.535156 C 112.726562 375.117188 112.460938 375.511719 112.234375 375.738281 C 112.003906 375.964844 111.621094 376.242188 111.03125 376.203125 C 105.878906 375.980469 101.039062 375.523438 96.5 374.882812 C 64.582031 370.363281 47.589844 356.652344 41.3125 350.375 C 34.140625 343.203125 17.269531 322.054688 15.480469 280.652344 Z M 15.480469 401.472656 C 15.457031 400.890625 15.722656 400.496094 15.949219 400.269531 C 16.175781 400.042969 16.574219 399.769531 17.148438 399.800781 C 24.765625 400.128906 31.6875 400.972656 37.972656 402.167969 C 65.855469 407.472656 81.019531 419.78125 86.871094 425.632812 C 94.042969 432.800781 110.910156 453.949219 112.703125 495.351562 C 112.726562 495.933594 112.460938 496.324219 112.234375 496.554688 C 112.007812 496.78125 111.621094 497.0625 111.035156 497.023438 C 105.878906 496.800781 101.039062 496.339844 96.5 495.699219 C 64.582031 491.179688 47.589844 477.46875 41.3125 471.191406 C 34.140625 464.019531 17.269531 442.871094 15.480469 401.472656 Z M 223.308594 278.984375 C 223.847656 278.984375 224.214844 279.234375 224.433594 279.453125 C 224.660156 279.679688 224.925781 280.070312 224.902344 280.652344 C 223.109375 322.054688 206.242188 343.203125 199.070312 350.375 C 191.898438 357.542969 170.753906 374.414062 129.351562 376.203125 C 128.765625 376.238281 128.375 375.964844 128.148438 375.738281 C 127.921875 375.507812 127.65625 375.117188 127.679688 374.535156 C 129.472656 333.132812 146.339844 311.984375 153.511719 304.816406 C 160.683594 297.644531 181.828125 280.773438 223.234375 278.984375 C 223.257812 278.984375 223.285156 278.984375 223.308594 278.984375 Z M 223.308594 278.984375 " style=" stroke:none;fill-rule:nonzero;fill:rgb(0%,0%,0%);fill-opacity:1;" />
</g>
</svg>